/* XPM */
static char *last_bottom_wall1691637141[] = {
/* columns rows colors chars-per-pixel */
"72 72 161 2 ",
"   c #050003",
".  c #080008",
"X  c #170004",
"o  c #1D0000",
"O  c #10000D",
"+  c #18000D",
"@  c #0F0111",
"#  c #120613",
"$  c #1B0013",
"%  c #150915",
"&  c #190B17",
"*  c #160C1A",
"=  c #1C0E1C",
"-  c #1F1017",
";  c #1E111D",
":  c #200F1B",
">  c #271214",
",  c #23131D",
"<  c #27181E",
"1  c #1D0E21",
"2  c #1A0D2C",
"3  c #1F1121",
"4  c #1D112B",
"5  c #200F26",
"6  c #231422",
"7  c #261925",
"8  c #291B26",
"9  c #22132B",
"0  c #26192A",
"q  c #2B1D2B",
"w  c #301F2F",
"e  c #220F30",
"r  c #231432",
"t  c #271C31",
"y  c #2D1F31",
"u  c #2D2227",
"i  c #2E212D",
"p  c #302124",
"a  c #31232E",
"s  c #35282D",
"d  c #2E2133",
"f  c #2E2538",
"g  c #332535",
"h  c #382736",
"j  c #352935",
"k  c #392936",
"l  c #34263A",
"z  c #36293A",
"x  c #392B3A",
"c  c #3E3237",
"v  c #3C343D",
"b  c #41363C",
"n  c #43393E",
"m  c #352D47",
"M  c #372F48",
"N  c #373043",
"B  c #3C3443",
"V  c #3E3844",
"C  c #3D344A",
"Z  c #413645",
"A  c #443A44",
"S  c #493C42",
"D  c #40374B",
"F  c #433A49",
"G  c #493E4A",
"H  c #403850",
"J  c #4C4145",
"K  c #4B424D",
"L  c #51454C",
"P  c #54494D",
"I  c #58494E",
"U  c #4C4452",
"Y  c #4F4853",
"T  c #524752",
"R  c #544A54",
"E  c #594E54",
"W  c #554E59",
"Q  c #594F58",
"!  c #575057",
"~  c #5C5156",
"^  c #57505B",
"/  c #5B525B",
"(  c #615557",
")  c #62565A",
"_  c #63595C",
"`  c #665C62",
"'  c #695E63",
"]  c #6C6165",
"[  c #6D6369",
"{  c #736965",
"}  c #716669",
"|  c #756B6C",
" . c #796D6E",
".. c #7B716E",
"X. c #776C70",
"o. c #7A6E72",
"O. c #7D7373",
"+. c #7F767B",
"@. c #807574",
"#. c #827976",
"$. c #81777A",
"%. c #83797A",
"&. c #8B7E7E",
"*. c #8C8276",
"=. c #8D817E",
"-. c #90837F",
";. c #92897E",
":. c #847B81",
">. c #8B7E81",
",. c #8E8382",
"<. c #8D8389",
"1. c #938785",
"2. c #958A84",
"3. c #998E86",
"4. c #918588",
"5. c #968B8A",
"6. c #9A8E8A",
"7. c #9A9187",
"8. c #9C918B",
"9. c #978D93",
"0. c #9C9291",
"q. c #A3968F",
"w. c #A4988E",
"e. c #A29693",
"r. c #A59992",
"t. c #A09699",
"y. c #A69A99",
"u. c #A99D9A",
"i. c #ABA197",
"p. c #ACA29D",
"a. c #B0A39C",
"s. c #B4AA9F",
"d. c #B8AC9F",
"f. c #ADA2A5",
"g. c #B1A6A2",
"h. c #B5ABA3",
"j. c #B9ADA5",
"k. c #B6ACAB",
"l. c #B9AEAC",
"z. c #B9B0A6",
"x. c #BBB1AC",
"c. c #B7ADB2",
"v. c #B9AEB0",
"b. c #BAB1B3",
"n. c #C0B5AB",
"m. c #C2B8AE",
"M. c #C1B6B1",
"N. c #C6BBB3",
"B. c #C9BDB5",
"V. c #C7BCBA",
"C. c #C9BCB9",
"Z. c #CCC1B6",
"A. c #CDC3BA",
"S. c #D2C6BE",
"D. c #D3C8BE",
"F. c #CFC4C3",
"G. c #D2C6C3",
"H. c #D3C9C3",
"J. c #D3C7C9",
"K. c #D5CACA",
"L. c #D8CDD0",
/* pixels */
"m M C C C N N V V N B v v v v v b N b Z x B B B B B B B B B B B B B B v v v v v Z b Z Z N N N Z Z C B M N v B B v v v v v V v v v v N N V V V M ",
"M C C H C N N V N V B B v v v v b b x N N B B B B N Z N B N x B v v B v v v v v b b N Z Z N m Z C Z Z B B B v v V v v v v v v v v v N N V V V M ",
"C C C C f r 2 2 4 9 0 6 1 1 1 3 5 0 5 e e 9 9 r 9 e e 5 9 9 9 9 5 9 5 9 3 3 3 6 : 5 e e e e e e r e e r t 0 5 5 6 6 6 6 4 0 4 4 0 t 4 4 2 f m V ",
"D D C C m f f d d f i g i u u i w h w w w g g g l g g g g g g g g g g i u u a s w w w h w l l g l l g g x j a q u i g s s s j j f j j f t f N N ",
"D B z Z ` +.:.:.+.+.+.+.+.+.O.+.@.&.@.&.@.&.@.&.+.$.$.$.$.$.$.$.+.+.%.+.#.#.#.%.@.@.$.@.$.$.:.$.$.+.$.$.$.$.$.$.+.O.#.#.#.+.+.#.+.+.:.:.+.[ K z ",
"v v 0 J <.c.b.c.b.b.x.k.k.x.x.x.j.n.j.v.j.v.j.n.k.c.k.k.v.v.l.l.x.x.x.x.x.x.x.x.v.l.v.v.v.v.v.v.c.c.c.k.k.k.l.n.z.k.z.x.x.z.h.h.k.c.x.b.c.9./ 6 ",
"x b $ L 0.J.L.J.H.H.H.H.H.H.D.H.S.G.G.G.J.G.S.S.J.G.G.G.J.G.G.G.H.H.H.H.D.H.H.H.G.G.J.J.J.J.J.J.G.J.G.F.G.G.G.H.D.A.H.H.H.H.F.F.F.H.K.K.J.f._ X ",
"b k + L t.J.L.J.F.F.S.D.D.D.D.D.S.S.S.G.G.G.S.S.G.G.G.G.G.G.G.G.A.F.H.D.D.D.D.D.G.G.C.G.G.G.G.G.G.G.G.G.G.G.G.D.D.D.D.D.D.A.A.D.F.H.H.K.H.f.' o ",
"b c $ J 9.A.F.A.Z.V.V.Z.N.Z.N.Z.Z.Z.Z.Z.Z.Z.Z.Z.B.Z.B.B.B.Z.B.Z.B.B.B.B.B.B.B.B.B.B.B.B.C.C.C.C.C.C.B.B.A.A.A.Z.A.Z.Z.Z.Z.Z.Z.Z.A.Z.C.A.V.y.( o ",
"b c < J <.k.b.x.x.V.Z.Z.N.m.d.s.d.d.d.d.d.d.d.n.j.j.j.n.j.j.d.n.j.j.j.j.d.j.d.d.d.d.j.j.j.j.v.l.k.k.j.n.Z.Z.Z.Z.Z.Z.Z.Z.Z.Z.Z.Z.Z.m.x.b.x.9.~ > ",
"c c u J +.0.y.t.h.Z.A.A.m.s.w.7.w.w.w.w.w.w.w.w.q.q.a.r.q.r.a.w.r.r.r.r.q.w.r.q.q.a.e.e.a.a.u.u.r.e.q.p.x.N.Z.Z.Z.A.A.Z.A.A.Z.D.C.k.u.y.t.&.P u ",
"c c s J | 1.5.5.p.V.H.A.m.i.;.*.&.w.&.3.&.w.&.3.>.>.&.q.>.>.&.&.1.2.2.2.3.;.;.;.3.>.6.>.>.q.>.6.2.&.-.w.z.m.Z.A.A.Z.Z.A.A.A.A.A.N.f.6.5.5.o.P s ",
"c c k J X.<.8.5.p.N.D.A.m.i.;.*.;.;.;.;.q.&.q.&.q.&.q.&.&.;.;.q.2.2.2.2.3.;.2.2.3.3.3.>.3.6.3.>.1.-.-.r.z.V.A.A.A.Z.N.A.Z.Z.A.A.N.p.5.5.3...P s ",
"A n c J X.5.0.8.p.x.A.N.z.i.7.;.;.;.w.;.&.q.;.;.>.q.q.q.q.&.q.;.3.3.7.7.7.7.3.6.6.q.6.q.>.3.3.3.5.>.-.r.z.N.N.N.N.N.N.m.Z.m.N.A.M.u.4.5.3.@.P s ",
"J J n P X.5.0.8.t.g.z.h.s.w.7.7.;.w.;.w.w.q.&.q.q.&.&.q.q.q.&.q.3.3.6.3.6.6.7.3.6.q.3.>.>.&.&.&.-.#.&.2.i.z.z.z.z.s.h.h.g.z.z.x.h.8.&.=.,.O.~ n ",
"E ! P ~ +.5.0.0.0.8.8.w.7.w.7.7.;.w.;.;.w.&.q.q.;.q.q.;.>.q.q.q.6.6.6.6.7.3.3.6.6.6.>.&.&.@.@.@.@. .| &.7.8.8.w.w.w.w.w.8.w.w.y.0.,...O.O.} ( P ",
"~ ~ E _ @.6.0.9.9.1.&.-.;.7.8.7.7.7.3.7.7.7.5.7.q.q.&.q.&.q.q.>.8.6.6.8.7.5.5.5.8.7.1.%...| { |  .{ { @.%.;.*.;.2.2.2.;.;.;.2.7.1.#.| | | [ ( ~ ",
"! ~ E _ @.6.0.9.6.1.1.2.2.7.7.7.7.7.3.7.3.3.6.7.&.q.q.q.>.q.q.q.5.6.6.6.5.5.7.5.9.8.1.%.@...|  . .{ { @.=.,.2.2.2.;.2.2.,.2.<.5.1.%.| ..| [ ( ! ",
"E I P ) +.6.0.5.6.6.6.6.7.5.7.7.7.7.7.3.3.3.5.3.&.q.q.q.q.q.q.>.6.6.5.7.5.7.8.8.8.8.,.*.@... . .@.{ { @.,.7.8.7.7.2.7.7.7.2.7.7.5.&.O.O.O.} / P ",
"E E E _ +.9.0.6.6.0.0.8.7.7.7.8.7.7.7.7.3.6.6.7.q.q.>.>.q.>.>.q.6.6.6.7.7.9.8.9.0.9.2.=..... . ...@.{ @.,.8.8.8.7.5.7.7.7.7.7.9.6.=.O.O.O.{ ) ! ",
"E ~ I ) $.9.e.0.0.0.8.6.3.q.8.8.8.8.8.6.8.6.8.6.q.q.>.a.q.q.q.q.0.0.0.6.6.9.8.0.0.0.8.=.@. . . .@.{ ..#.;.3.8.0.7.9.9.7.9.7.9.0.0.,.o.o.O.} _ ~ ",
"I ( I ) @.5.0.6.0.6.6.6.5.6.8.6.3.3.3.6.6.3.3.3.q.>.q.>.>.q.>.q.6.5.6.6.6.7.6.6.0.0.4.=.@. .|  .@.{ | @.-.2.6.8.8.7.7.7.7.7.7.0.6.&. . . .} ( E ",
"I I G ( o.4.9.4.4.5.1.1.1.2.2.5.2.2.3.3.2.3.5.2.>.q.q.>.>.q.>.>.1.1.4.5.<.,.<.5.4.5.,.%.o. .|  ...| | @.&.1.1.2.4.4.2.2.2.<.5.7.4.%. .X.o.] ~ P ",
"G G S I } >.>.>.>.>.&.&.&.&.1.-.&.&.&.&.&.&.&.&.&.&.&.>.>.>.&.&.>.&.>.>.=.&.=.:.,.,.%.O. .| { { { { {  .@.#.%.=.:.*.:.=.=.*.:.<.>.o.} | | ' P n ",
"b b b b ) X.O.X.X.X.| X. . .@. .@.@.@.} @. .@.@.} @.@.@.@.@.@.@.@.@.@.@.@.@.} X.X.X.| } ] ] ] ] ] ' ` ] { | | | | | ....| ....X.| [ ` ' ' / A k ",
"w 8 > 8 L / ` ` ` ) ) ) ) ) ) ) ( ( ( ( ) ) ~ ( ( ( ( I ) ' I ) ) ( ) ) E ) ) ) ) ) / / / ) / ~ ~ ~ ! / / _ _ _ _ / / ( _ / / _ ` ) Q ) / T k , ",
"% +   : c P R ! T L L L L L L L I G S G G I I G I G S G G G G G G I G I G E G G P K P R E W E R Y P L P ! P P Y Y L L L P L P Y R R R W Q G 7   ",
"- & O , v R ! ! E R T T R R R W I E I I R T E T I I I ~ E I Q Q I I I I Q G I E P R E Q ^ ~ W W ! ! ! R ! Y ! ! P Y ! ! Y Y P ! R R Q Q Q G q . ",
"3 ; % u A ! / / Q Q Q Q ^ ^ / / ( Q / Q Q / W Q Q Q W Q Q / Q Q Q Q Q Q ~ Q Q Q ~ W ^ / / / ^ ^ ^ ^ ! ! W ! ^ / ^ ^ / ^ / / ! ! ^ ^ / _ / K i @ ",
"< 3 % 7 A ! _ / ) Q Q Q / / / / / / / / / / / / / Q / Q / / Q / / / Q / ) Q Q Q ^ ^ / / _ ^ ^ ^ ^ ^ ^ ^ ^ ^ ^ ^ / ^ ` ^ / / / ^ ^ / / ) / K d # ",
"; ; * u A ! ! _ Q Q / / / / / / / / / / ^ / ^ / / / / / Q / / / / / / / / ` / / ^ / / / ^ ^ ^ W ^ ^ / / ^ ^ ^ ^ ^ ^ _ _ / / / ^ ^ / / / / U d % ",
"; ; * u V ! ! ! Q Q W W Q W W ^ / / ^ ^ W W W W Q Q W W Q Q W Q Q Q Q ^ / / Q Q ^ ^ ^ ^ ^ ^ W W ^ ^ ^ ^ ^ ^ ^ W ^ ^ ^ ^ ^ ^ ^ ^ ^ ^ ^ ^ ^ K i * ",
"; ; * 7 v P E R T E T T W W Y W Y Y ^ Y Y Y Y Y R R T W T W W E G Q E E W Q R T Y Y Y Y Y Y Y Y W W W W W W Y W Y W W U Y W R W E R R W R D y * ",
"< ; - u v K K K K K K K G G H G U U K U U U U U K U H G G G G G G G G G G G G F V K A K K K K U U U U U U U U U U U U U U H K H T G G G G B 8 = ",
"; ; ; u x n A A A Z Z B C D M D C C C C C V V V V V Z B D D Z Z H D Z D A v x x z x x B N B V V F V C C D Z D D H D D B C B Z Z Z Z Z D D z 0 = ",
"; ; ; ; a x x x z j z l l z l m N z z z z z z z f z x z z z l m x x l h j g g u q q y y f j j z N z z m g z z m m x x z z z z z z z z x x d 9 5 ",
"; ; ; ; 8 g a i i y d y r f f f f d f y d d d d d d d d y l y r d y d y a q 7 3 = = 1 0 t y d y d d y y y y t y l l f r d y d d d d w d g d 6 1 ",
"< ; ; < q g g d d g g l f l l l f f l f g f f f f j f d y y l l g g g g g g q 6 = = 6 0 y g l g f f f g l f m y l l l l g l l l l g d l g q 9 6 ",
"< ; ; < u g g g l l z l l l l l y l l f f f f z l f f l l l l l l l l l z j d 7 6 1 6 q g l z l l l z z l l l l l l l y l l z l l g g l l d 7 5 ",
"; < ; 7 q g g g l z z l l l l l m f l l m z z f z z z l l l l l l l z z z z q 0 5 1 0 t g g h l j l z m l m l l m l l l l l l z l l l g z q 9 : ",
"; ; 3 7 i g j g l l l l l l l l l l l f l l l m m l l f l l l l l m f l z g d 0 6 1 0 y g l l l h l l l l l f l l l l l l l l l l g g g l w 9 5 ",
"< ; ; u i d l g g l l l l l f l l m l l l m l l l l l m l l l l l l l l l g q 0 6 5 7 y g l l g l l l l l g g d l l l l l l l l l g l l l w 6 1 ",
"; ; ; 3 q g g g g l l l l g l l l m l l l m l l l f l l l l l l l l l l h g y 0 6 6 0 y l z l l l h l N l l l l l l l l h h l l g l l z l d 9 9 ",
"< 7 ; u q g j j g g g g l l l l l l l f l l m r l f l l l l l y l l l l l j d 0 6 : 0 d g g l z l l l l h l l l l l l l l l l l l l g z h g 0 6 ",
", , , < u g k k k j j g l j z f l l l l l l l l l l l z h l g g l l l h h z y 8 5 1 0 y g j z z l l l h h z l l l h l l h l l Z z z z h g d 8 6 ",
", ; > < q s k j j j j j j z z z j j j j l l l l g z z x h l j j l l h h h j w 0 6 , 7 q d j h h l h l l g l z h h l l l l l l h h z j g g d 0 3 ",
", , ; , u a s j g g a d j g j d d d g g g j w g g j j j z g g g g g w g j j q 7 3 = 6 8 d g g z l w w w g g g g g g g l l l h h j j g d i 8 6 ; ",
"> , > , < q u u u u q q q i i 8 u i q u q q w q q i q i w q q q q q w q w q 8 6 = 6 6 7 q q w q w q t w q d y w q q y w w y w w i i q i q 0 6 3 ",
", > - - < < 8 8 < , 6 6 6 7 6 7 7 6 7 7 7 3 u 3 3 3 u 0 7 7 6 6 7 6 6 6 0 7 6 = = ; 6 6 7 7 0 7 0 0 0 0 0 q 0 0 7 6 7 7 0 6 7 0 7 7 6 7 7 6 3 ; ",
", , - , < 6 < , , , ; , 6 ; 3 3 ; 6 3 ; 3 3 3 3 3 u 3 3 6 6 , 6 6 6 6 6 , 6 , , : ; = , 6 1 6 6 5 : 5 : 6 6 7 6 6 1 3 6 5 , ; 6 , ; 6 6 7 6 < ; ",
", ; , , , , , : ; , 3 1 3 3 ; 3 ; 3 3 3 3 3 3 3 3 3 3 3 1 = = 1 = 6 1 3 , = = = 1 ; = , = = = , : 1 : : 3 6 = 6 = = 6 ; 6 ; = , ; ; ; , , 6 < 6 ",
", - > , , , : : ; 6 7 6 6 6 6 6 9 0 6 6 u 3 u 3 7 7 3 7 = 1 6 6 7 6 6 6 7 7 6 6 6 7 6 6 6 6 6 , 6 6 7 6 6 1 , = , 6 6 6 6 7 6 6 6 ; - ; < ; 3 ; ",
"- , , , , , , , 6 q q q d q 8 q q q q t q q 8 q i 8 0 6 6 6 0 0 q q q q q q q q q 8 8 q 8 q q q q q q 0 7 5 6 6 6 8 8 q q q q 8 q 6 < , , 6 , , ",
"- - , , 6 < < 6 8 d g g f d d d d g g y d d d d d d q 0 7 9 q y g g g y a g g g g a g d w w a g g j g q 8 6 6 6 8 w w a g a g a p 8 < , , 6 : 6 ",
"; , , < , 6 , , 8 g g z l g f g l l l g l d g d d d q 9 6 6 q y g l l g g h g g g g g g g g d g g g g d 8 7 6 6 q a g g h g j g a 8 6 6 6 , 6 : ",
", , < 6 6 6 5 5 0 g l z l g l l l h l l l l g g f y q 6 3 9 0 y l l f g g g g l j j g j g g g g g l l d q 9 6 6 q g g s h g h k a w 6 , 6 6 6 6 ",
": : > 8 6 6 : 5 0 g z z z l l l l h z l l l g l l y q 9 1 6 0 d h z l g l g j l g h h z z g g g g l l w 0 0 6 5 q g h g h h h l a w , , 6 6 5 > ",
"6 6 8 5 6 , 6 5 0 d z z x l l l l l z z l g l h l d 0 6 1 5 0 y z z g l l h l g l j z z h l l g g l x g 0 5 : 6 q g h w h h h h s w 6 , 6 : 6 : ",
"> 6 6 6 6 6 : 6 q g l x h l g l l z z z h g l l g g t 6 1 6 0 g h z l j z h g g l h l z z h l g g l l g 0 5 6 6 q g g g g g h h h w 6 , : 6 6 6 ",
": 6 > 5 6 : 5 6 0 h h h x h g l h z z z l g h j g g q 6 6 6 8 g h z h g z z h l g g l j z z j l h l h w 8 6 : 5 q j h h h b k h a w 6 6 6 > 6 : ",
": : > 6 , , 6 , q a j x h l h h x x z j j g j j g g q 8 7 8 q g g b g g l h z l l g l g h h l h h h g w 0 5 > 6 w h h h b b h h h 8 6 , < < ; < ",
"> 6 > 6 , , , , 8 a g g g g g g g j j g g g d d q q q 8 6 7 8 q w a w g g d d g d l d g d w g w g g w q 8 6 5 < 8 a w w w h w w p q < , ; , , , ",
"6 6 6 , , , , , < 8 q q 8 0 0 8 u 8 8 i 8 8 8 8 q 8 6 , , , 6 8 w 8 8 8 8 q 8 0 q 0 0 q 8 0 8 q q w 8 8 6 6 : , 8 8 q q 8 w w 8 8 6 , ; , , , - ",
"< > 6 > > , , ; , < , 6 6 , , : ; ; ; 6 < 6 < 6 < , , ; & : : , < > , 5 6 5 6 6 6 6 6 6 6 6 6 , 6 6 6 6 6 : 6 , < < > , : 6 > < 6 , , , , , , , ",
"> > , , , , , , 6 6 , , : , < , : ; , , ; ; < - < ; ; ; - - ; , , , - ; , ; 6 , 6 6 6 : : : 6 = 6 , 6 6 , , , , , < , - ; ; : , , , : , , , , , ",
"> 6 : > > , , < > 6 , 6 , 6 6 , , , ; , < ; ; < ; < < < < , - , < ; ; , , , , , , 6 , 6 6 , : , : 6 , 6 , 6 > 6 , , , > , , , , , : , ; , , , , ",
"6 > 6 : , , 6 < 0 , , : , 6 , < < ; , ; ; < ; < ; < < ; < - ; < , > , - , , , , , , , , , : : : , : , 6 , , 6 6 , , , , , , , , , , , , > , , , ",
"< > > : , < , , > , , , , , , 6 ; ; ; < , ; ; ; , ; ; < < < , - , , , , , , , , , , 6 , , , , , , , , , , , , , , , < < < , , , , : , > , , , , ",
"> , , > > , , , 6 , , , , , , , ; ; ; ; < ; - - - - ; < < - - < , , > , < , , , : 6 , , , , , , : , , , , : , , , , < < 7 < > , , , > , , , , , ",
"< , : : , , , < , , , < , 6 , < , ; < ; ; < , ; , ; < , - < ; - , , , , , , , , , , , < , , , < , , , , > : , , - - , < < , < , - - , , , > , , ",
", , : , : > , < , , < < 6 6 6 < < ; ; ; u u ; , , , , < , , ; ; , , < , , , - , , , , > < , < < > < , > > , , , - - , , , , , ; , , , , - > - , ",
"> , > , , , > , 6 , , 6 < 6 6 6 ; < 3 < ; ; ; , , , , < < , , ; , , < < < , , , , > , , , < > 6 < , , , < , < , - - > , < , > ; - , < , , , , , "
};
