/* XPM */
static char *last_coin1691637141[] = {
/* columns rows colors chars-per-pixel */
"72 72 250 2 ",
"   c #000000",
".  c #0C0000",
"X  c #03000B",
"o  c #150104",
"O  c #1C0104",
"+  c #050513",
"@  c #190B15",
"#  c #1D111A",
"$  c #240102",
"%  c #260A0A",
"&  c #26110D",
"*  c #37110A",
"=  c #250E12",
"-  c #290E16",
";  c #251215",
":  c #2A1215",
">  c #23141B",
",  c #2D1418",
"<  c #2A191D",
"1  c #381915",
"2  c #3F221C",
"3  c #2B1C20",
"4  c #3D312D",
"5  c #4F1405",
"6  c #421A12",
"7  c #6A0200",
"8  c #740800",
"9  c #761900",
"0  c #4E2910",
"q  c #492818",
"w  c #582A1A",
"e  c #772300",
"r  c #7B2300",
"t  c #742F00",
"y  c #7D2A00",
"u  c #7C3300",
"i  c #7B3600",
"p  c #642B17",
"a  c #67321C",
"s  c #7B371D",
"d  c #5A2D21",
"f  c #4F3A2C",
"g  c #6B3929",
"h  c #743C2A",
"j  c #5A4128",
"k  c #504137",
"l  c #7A4529",
"z  c #754C37",
"x  c #584C45",
"c  c #6D5B4B",
"v  c #796251",
"b  c #862A00",
"n  c #852C00",
"m  c #833400",
"M  c #8B3300",
"N  c #833A01",
"B  c #8D3B01",
"V  c #853C0A",
"C  c #8E3D0C",
"Z  c #913B03",
"A  c #943A04",
"S  c #943D0C",
"D  c #853017",
"F  c #8B3D17",
"G  c #933E13",
"H  c #933F1A",
"J  c #8A4108",
"K  c #954308",
"L  c #8D4218",
"P  c #944215",
"I  c #9A4815",
"U  c #94431C",
"Y  c #99451D",
"T  c #9C4B1D",
"R  c #9C521D",
"E  c #A45708",
"W  c #A14D1A",
"Q  c #A6551D",
"!  c #A66204",
"~  c #A86618",
"^  c #B6691B",
"/  c #8A4729",
"(  c #954524",
")  c #994523",
"_  c #954924",
"`  c #9C4B23",
"'  c #93462A",
"]  c #9A4529",
"[  c #92492C",
"{  c #9C4A28",
"}  c #995527",
"|  c #9D5A2C",
" . c #834733",
".. c #8D4B35",
"X. c #914A32",
"o. c #8A5438",
"O. c #995B35",
"+. c #A75326",
"@. c #A55626",
"#. c #AB5B25",
"$. c #A35B2D",
"%. c #AB5A2B",
"&. c #A45C34",
"*. c #9D613B",
"=. c #AB6828",
"-. c #B66A27",
";. c #B4642C",
":. c #BC6C2C",
">. c #AE712F",
",. c #B9722C",
"<. c #A96536",
"1. c #B46533",
"2. c #BA6735",
"3. c #BB6A33",
"4. c #B66C39",
"5. c #BC7233",
"6. c #B87636",
"7. c #BC733C",
"8. c #C16E2C",
"9. c #C3732D",
"0. c #C8762F",
"q. c #C16E33",
"w. c #C16E3A",
"e. c #C47434",
"r. c #C97735",
"t. c #C47A33",
"y. c #CA7936",
"u. c #C5743B",
"i. c #C8773B",
"p. c #C57A3C",
"a. c #CA7A3B",
"s. c #905C45",
"d. c #996848",
"f. c #917050",
"g. c #967555",
"h. c #A76A43",
"j. c #B56D43",
"k. c #BC7444",
"l. c #B97748",
"z. c #BD7C4B",
"x. c #A47854",
"c. c #B97E53",
"v. c #8F7868",
"b. c #C37543",
"n. c #CB7741",
"m. c #C47A44",
"M. c #CB7A43",
"N. c #C37C4A",
"B. c #CB7C4B",
"V. c #CC7D4D",
"C. c #C58039",
"Z. c #CC823C",
"A. c #B9844C",
"S. c #AF835D",
"D. c #BB8553",
"F. c #BA8659",
"G. c #99887A",
"H. c #BC926A",
"J. c #BD9575",
"K. c #B5927A",
"L. c #BD957A",
"P. c #C98347",
"I. c #D58B49",
"U. c #D7934B",
"Y. c #DB924B",
"T. c #C48657",
"R. c #C48955",
"E. c #D48D55",
"W. c #DA9558",
"Q. c #E0944F",
"!. c #E49A57",
"~. c #E9A45A",
"^. c #EBA45B",
"/. c #F3AD5E",
"(. c #C38B64",
"). c #C79569",
"_. c #C29A6C",
"`. c #DB9A62",
"'. c #D79A69",
"]. c #C49A77",
"[. c #D89E72",
"{. c #E29C66",
"}. c #D6A36F",
"|. c #D3A473",
" X c #D4A67A",
".X c #D8A879",
"XX c #EAA666",
"oX c #F4AD63",
"OX c #F6AA67",
"+X c #F1AD6C",
"@X c #EDB66C",
"#X c #F6B164",
"$X c #FAB565",
"%X c #FDB966",
"&X c #F4B36B",
"*X c #FCB56B",
"=X c #F2B96C",
"-X c #FEBA6A",
";X c #EBAC73",
":X c #F3AE75",
">X c #E3B37D",
",X c #ECB87A",
"<X c #F6B577",
"1X c #F5B973",
"2X c #FDBB74",
"3X c #FDBC7A",
"4X c #FDC17E",
"5X c #9B8C82",
"6X c #AC9585",
"7X c #D1AB8C",
"8X c #DCB283",
"9X c #DAB795",
"0X c #DEBA9B",
"qX c #E7B988",
"wX c #F3BE83",
"eX c #F9BB84",
"rX c #E3BB97",
"tX c #E4BC94",
"yX c #C9B5A6",
"uX c #D9BAA5",
"iX c #E2BDA5",
"pX c #ECC08A",
"aX c #F7C388",
"sX c #EBC294",
"dX c #ECC399",
"fX c #F8C898",
"gX c #FAD29E",
"hX c #D7C4B1",
"jX c #F3CDA3",
"kX c #FCD4A4",
"lX c #F9D4A9",
"zX c #FAD5AA",
"xX c #FEDBAB",
"cX c #E9CBB8",
"vX c #F6D4B3",
"bX c #FEDEB4",
"nX c #F4DEBD",
"mX c #FAD8B9",
"MX c #FFE1AE",
"NX c #FFE2B4",
"BX c #FEE3BB",
"VX c #FAE5BB",
"CX c #E8D2C4",
"ZX c #F3DEC3",
"AX c #F8DAC3",
"SX c #F5E1C2",
"DX c #FDE3C3",
"FX c #FDE6CB",
"GX c #FDE7D3",
"HX c #FFF2D4",
/* pixels */
"- - - - - - = : ; ; &       j g._.8XpXpX,X>XpXsXlXMXVXnXSXZXZXZXZXSXZXZXSXSXFXSXSXVXnXnXnXnXZXZXSXDXZXGXGXGXCXyX5Xx       # # # > > > > > > > > ",
"- - - - - - - ; : & &       j g._.>XpXpX,X>XpXsXlXVXVXnXSXZXZXZXZXnXVXSXSXSXSXSXSXnXnXnXnXnXVXAXDXDXZXGXGXGXCXyX5Xx       # > > > > > > > > > > ",
"- - - - : - : ; & & $       j g.J.>XpXqX>X>XpXsXjXbXVXnXZXZXZXSXZXVXZXSXSXSXFXSXVXnXnXnXnXnXZXZXFXAXGXFXGXAXCXyX5Xx +     @ # # > > > > > > > > ",
"- , - , , : = $ .           f f.H.qXpXwXpX4XpXsXlXVXVXVXDXDXDXDXSXDXSXDXDXDXDXSXDXSXBXBXnXnXBXDXAXGXAXFXGXGXCXyXG.4 X X       X + # > < 3 > > > ",
", , , , 1 < & .             q f._.8XwXfXwXwXaXgXxXNXBXDXDXFXDXDXDXFXFXDXDXDXDXDXDXDXDXDXBXDXAXDXFXDXGXGXGXGXAXyXG.4               @ 3 3 < < > > ",
", , , , < 1 & O             q f._.>XwXwXqXwXaXfXlXbXBXDXDXDXDXDXDXDXBXDXDXBXBXVXBXmXBXBXBXAXDXAXDXDXAXAXGXGXCXyXG.f               # < < > > > < ",
", : : : & & 1 q f f j f q q z g.H.|.>X>X>X>XqXtXdXlXlXvXbXvXbXmXbXmXmXvXvXlXvXlXvXvXvXvXvXvXvXvXmXvXmXmXAXmXcXyX5Xv k 4 x x x f 4 3 @ = # ; > ; ",
": : : $ . O q k v f.G.g.g.f.x.S.H._.'.'.'.'.|..X8X9XrX0X0X0X0X0X0X0X0X0X0X0X0X0X0X9X9X0X0X0X0XrXrXuXuXuXiXuXyX7X6X6X5X5X5X5X5Xv x f     . ; > ; ",
"& & & .     f v v.L.].7X].].).(.F.D.c.A.x.A.A.S.H._.].J.L.L.L.K.L.J.L.L.].].J.J.J.K.J.K.L.L.L.].].6X7X6X6X6X6X7XyXyXyXuXhXyXyX6Xv.k       > < ; ",
"& & &       f g.K.7XrXtXqX8X>X].S.h.} _ } O.O.*.*.d.d.d.d.d.d.d.f.d.d.d.d.d.g.d.d.d.s.d.d.d.d.g.d.d.d.s.X.s.x.6XuXcXAXAXGXCXCXyXG.x       & ; > ",
"% % $       j v.].9XfXfXjXeXqX'.F.| u r i N N N N N i N i i i i t i i i i J J i t t t i i i i N b M u 9 8 8 s.6XiXAXGXHXHXHXCXyX6Xx       O & & ",
"            f v.7X9XfXfXfXeXeX[.c.| r 8 y u u n y y r r r r e 9 9 8 7 9 9 e e e e 9 7 9 9 9 9 9 b 9 9 7 7 7 ..K.iXAXGXHXHXHXZXhXG.x             ",
"            q f.c.rXiXfXfXfXeX[.N.O.m y N J J B N m m m N N N m e e 9 9 e e e e t e e e e y e y y u m 9 7 7 s.L.iXmXDXGXHXHXnXuXG.k             ",
"            d f.7XqXeXeXeXeXeX[.N.O.B B J I P L P P J L P L L J J N N m u i N N J i J V J i V F F H ( n 9 b d.].rXvXBXDXFXFXnX9XG.j             ",
"j j j f q d s.x.c.7XeX8XeXeX{.V.l.&.B B K R T R R I T R R R ` | | $.| | | O.| | *.=.| =.O.| | } } } { P M A h.(.8XjXxXbXNXNXjX7XG.c 0 % 0 j j j ",
"g.f.x.f.d.g.v.c.c.[.[.[.V.7X[.V.j.| J B P T T R ` @.@.@.#.$.;.4.k.z.T.T.D.z.z.z.A.z.z.l.z.z.k.7.4.%.$.} ` ] j.c.7XqXrXjXdXdX0X7XK.S.*.v f.S.g.g.",
")._.H.H._._._.(.F.S.D.c.F.c.l.j.&.' G S P T W @.+.1.1.;.;.3.u.N.E.`.{.{.{.'.'.`.`.W.W.W.{.W.W.V.V.j.2.1.1.1.j.c.).[.8X8X[.7X[.]._._._.H._._.H._.",
">X@X>X>XpX>X.X'.F.*.} } O.&.&.} _ U H P U Y ` %.;.q.w.w.q.q.B.E.{.:XeX2XeX<X<X:X;X+X+XOXOX:XXX{.E.n.b.7.j.k.b.N.V.V.T.T.V.(.(.'.|.>X>X>X>X>X>X>X",
"pXpX4XpXaXeXqX}.A.} y r m C C S H P U P H W +.#.;.w.i.i.r.i.I.!.;X<XeX3XeXeX3X2X2X*X*X:X:X<XOXOXY.I.b.w.b.n.b.b.N.7.7.3.;.-.b.E.}.4XaXaXaXpX4XpX",
"4X4X4XpXaXaX,X}.c.} e 8 b m B V C H H H G H W #.2.q.i.r.q.e.M.!.OX:X3XeX3X3X3X3X<X2X2X2X2X<X:XOX!.V.n.w.n.n.n.u.b.3.:.-.^ -.l.E.|.4X4XaXaX4XaX4X",
",X,X,X3XaXeX:X'.c.} t r N J P L G G G G S G W Q ;.8.e.8.8.,.Z.U.{.*X3X2X<X2X2X2X2X2X2X2X3X2X*XOXQ.V.q.u.i.n.n.u.u.u.q.w.:.3.P.W.XX1X4X4X4X4X1X4X",
"=X@X=X<X2X3X;X`.z.| N m P U U U U I I P S G W #.-.q.e.0.8.9.p.U.!.OX*X<X*X1X&X<X*X*X*X2X2X*X*X^.Q.n.q.q.u.i.n.i.u.u.u.w.w.i.P.W.XX@X1X4X1X1X1X1X",
"=X&X=X1X4X1X:X`.z.| m m C U Y ` ` ` ` W I I W ;.q.y.Z.y.y.y.Z.Y.~.oX*X<X&X&X&X*XOXOXOX*XOX*XOX!.I.a.q.e.q.i.i.i.u.w.q.q.q.w.M.Q.!.+X&X&X#X@X#XoX",
"=X@X=X1X1X1X:X`.z.| B m J U T ` +.%.%.#.#.Q ;.q.Z.I.Y.Y.U.U.Y.~.XXoX$X*X*X$XoX&XOXOX^.^.OX^.!.Q.I.i.y.q.i.a.i.w.q.;.1.;.;.3.w.B.W.!.~.~.~.~.~.~.",
"=X&X=X1X2X2X&X`.z.| M m B P T +.%.1.2.3.-.-.5.P.U.!.~.~.~.~.~./.#X$X%X%X%X=X#XoX!.Q.Y.Y.Y.Y.I.I.n.a.y.y.r.r.w.q.;.#.#.Q #.+.;.q.a.Y.Q.Q.Q.Y.Y.Y.",
"=X=X=X1X4X3X&X`.T.$.B n B P T %.1.7.u.e.,.9.Z.I.W.~.#X/.#X/.#X#X%X%X=X%X%X-X#X~.Q.I.a.y.a.i.r.i.n.y.y.y.n.n.w.2.;.Q W W I W +.;.w.y.a.Z.Z.Z.Z.Z.",
"=X=X=X1X4X1X@X`.N.$.B b B P R %.4.u.p.i.C.0.Z.U.~.#X%X-X=X%X%X%X%X%X%X%X-X-XoX~.Y.y.8.-.:.:.8.e.y.y.y.n.n.r.q.8.#.W A A A A I Q ^ 8.0.0.9.9.9.9.",
"@X=X=X1X3X1X@X'.z.| M b M S T #.1.e.a.u.^ C.Z.U.~.&X-X-X%X%X%X%X%X%X%X%X-X-X$X~.Y.r.^ -.:.:.q.e.0.y.y.y.n.y.8.2.#.W A A A A I Q ^ 8.0.0.9.9.8.8.",
"@X@X4X@X4X4X@XW.l.} n b n C I #.-.5.t.,.-.^ C.U.~.$X%X4X%X/.%X%X%X%X%X%X-X-X-X^.Y.y.8.:.q.r.i.i.y.r.r.r.y.y.n.2.#.W W A A S W +.;.8.0.0.0.0.0.0.",
"@X@X>X@X4X@X@X`.z.} m n M Z I #.;.5.t.9.,.^ Z.Z.~.&X4X%X%X%X%X%X$X$X%X%X-X-X$X^.Q.y.8.8.r.i.y.y.y.y.r.r.r.i.0.8.#.+.A S S Y W #.2.0.0.y.0.r.0.y.",
",X4X4X4X@X4X,X}.A.<.J B B I Q =.5.Z.P.Z.t.C.Z.Y./.=X-X4X%X$X/./././././.$X$XoX!.I.y.0.q.i.i.a.y.r.r.e.r.n.r.w.8.;.W S S S S W #.:.8.y.y.y.y.0.0.",
"pXfXpXpXpXaXpX|.R.h.R K R Q =.7.P.Y.Q.Q.Y.Z.Q.~.oX%X-X-X%X$X/././.~.^.^.^.^.^.Q.I.r.e.0.r.i.i.i.r.r.r.r.r.n.r.8.#.W W S H S W #.8.0.y.y.r.y.y.y.",
"gXgXgXgXgXgXpX>X).z.<.~ =.>.6.A.Y.~././.^.!.^./.#X%X-X-X%X$X/./.Q.Q.Y.Z.Q.Q.Y.Z.Z.a.r.r.r.i.i.y.r.t.y.y.a.y.r.:.#.W P P G P T #.:.q.y.y.y.y.r.r.",
"MXxXxXxXxXxXgXpX|.R.6.>.=.>.C.U.XXoX$X%X$X$X$X$X$X$X%X$X$X$X#X^.Q.Z.Z.y.Z.y.a.y.a.r.r.r.r.r.0.r.y.y.y.a.a.a.i.3.%.W P P G G T #.:.q.y.i.y.r.r.r.",
"NXNXMXNXMXMXgXsX.XR.6.>.>.6.C.U.XX-X%X4X-X-X-X$X%X$X$X-X%X$X$X!.Q.Z.0.8.8.8.0.y.r.a.i.a.r.e.0.0.y.y.Z.y.a.a.e.:.=.W P C C U T %.:.q.a.a.y.y.i.y.",
"VXNXNXNXNXMXgXsX.XR.6.-.=.,.A.U.XX$X4X4X2X-X-X$X%X-X-X-X-X-X$X^.Y.Z.:.^ 8.8.8.e.r.y.y.r.t.e.e.e.y.y.Z.a.a.a.u.3.%.T P P F H T %.q.i.a.a.i.i.i.i.",
"NXNXNXNXVXMXxXsX|.D.=.! ! ~ C.U.~.&X2X4X-X-X*X*X-X-X-X-X2X4X$X^.Q.a.8.8.q.q.r.i.r.r.r.r.e.e.9.0.y.y.a.Z.a.a.u.2.%.T P H F U ` %.4.i.M.a.a.a.a.n.",
"NXbXNXNXMXVXkXsX XD.>.~ ! >.6.U.~.&X-X-X$X$X$X$X$X-X-X-X-X2X$XXXQ.a.w.q.w.i.i.i.i.r.r.r.0.9.e.e.y.y.a.i.M.a.u.2.%.T H F H U { %.3.b.a.M.M.n.n.i.",
"lXlXkXlXxXlXgXsX|._.A.A.A.A.R.U.~.XX+XoX/./././.OX$XOX-X-X*X*X!.E.a.q.q.i.i.i.i.u.r.r.e.e.9.e.e.0.e.e.u.i.u.3.1.@.T U F H ( { $.2.u.u.n.u.u.u.u.",
"tXsXtXsXsXsXtX8X>X|.|._.|.|.|.|.}.`.~.~.!.^.!.^.!.^.^.^.XXOX!.Y.I.a.w.w.i.i.n.i.a.a.u.e.r.r.e.e.9.:.:.2.q.3.1.%.+.` H H H ) { $.%.2.2.2.3.2.2.2.",
" X X.X X X X.X>X>XpXpXsXpXsX>X>X}.W.U.Z.U.U.U.U.Y.Y.I.Y.Y.Q.Y.I.n.u.q.r.i.n.a.i.i.i.r.i.i.i.r.:.-.=.#.#.%.%.+.+.` U H ( ( ] ] { +.%.%.%.%.%.%.%.",
"F.R.F.F.A.F._. XpXgXgXkXkXkXgXpX}.R.C.t.C.C.Z.Z.Z.Z.y.Z.Z.y.a.r.y.r.r.u.p.a.M.a.M.u.a.i.a.p.u.3.#.Q I I T W W T Y ( ( ( ] ] ] ] ` T T W W ` T W ",
"6.6.6.>.>.>.A.|.pXgXMXMXVXMXgXpX|.A.,.>.>.C.C.,.9.,.,.:.8.r.9.9.e.r.u.u.b.a.a.a.p.p.u.a.M.a.u.;.#.I Z Z K K U U U ( ( ) ] ] ] ) Y H P P H H P P ",
">.,.>.~ ! ~ A.|.pXMXMXVXVXMXMXpX|.A.~ ! >.,.,.,.^ ^ ^ ^ ^ ^ -.8.:.:.3.e.e.e.u.u.e.e.e.e.e.r.e.;.Q K M M B A B S U U ) ) ] ] ] ) ( P G G H G G H ",
"6.6.6.,.~ ~ A. XsXMXMXVXVXVXkXsX_.A.~ ! ~ ,.-.^ ^ ~ ^ ^ ^ ^ -.^ -.-.-.:.:.,.,.8.3.5.3.e.e.5.:.=.E B b b b M M C G H ) ] ] ] ] ] ( U Y U Y U U U ",
"7.6.6.,.~ >.A. XsXMXMXVXMXMXgXpX|.A.=.=.,.>.6.>.,.,.,.,.,.,.t.t.5.5.5.3.5.5.5.7.5.5.5.6.e.5.3.#.W K B M B B Z G H H ) ] ] ] ] ) ) ) Y Y Y ) ) U ",
"C.p.7.6.^ ,.A.|.pXjXMXMXMXgXgXtX XH.A.A.F.F.R.R.R.D.R.R.R.E.R.R.R.T.T.R.R.T.E.P.P.P.m.Z.M.m.m.6.>.#.} @.$.$.$.+.{ ) ) ) ) ] ] ] ) ) ` U ( ( Y ` ",
"t.p.t.6.,.6.P._..XpXsXsXsXpXsX8X X X X X.X.X.X.X X|.|..X.X.X.X.X.X.X|.|.}.}.|.'.`.E.E.W.W.U.U.E.P.A.z.P.N.N.b.j.%.{ H H H ] ] ) ) ( ( ( ( ` ( ( ",
"p.p.p.a.p.7.P.R.).|..X X X|. X8X8XsXsXsXsXsXdXsXdXsXdXsXsXsXsXsXsXtXsXpXsXsXqX,X;X;X{.XXXXXXXX{.!.`.W.`.{.{.W.V.j.{ G G H ) ) ) ) ( ( ( ( ( ( _ ",
"p.a.a.p.p.p.m.P.R.R.R.D.A.F.H. XsXjXxXxXlXlXzXxXlXlXlXlXzXzXzXxXlXkXkXlXkXkXgXfXpX,X;X&X+X&X&X&X&X+X+X&X:X:XXXW.b.&.A M G ) ) ) ( _ [ _ ( _ _ ' ",
"a.M.M.b.m.M.P.7.6.4.4.>.| >.F. XsXMXNXVXVXNXNXNXNXNXNXNXNXBXNXNXNXbXNXNXMXxXkXgXaXaX<X<X2X2X2X2X2X2X3X3X3X3X:X{.N.&.A M S Y ) ) ` ' [ [ [ [ ' [ ",
"m.M.m.M.M.m.p.p.5.6.>.=.~ =.A. XdXMXVXVXVXNXBXNXBXBXVXVXBXNXBXNXNXNXNXNXNXNXxXkXfXaX3X<X3X3X3X2X2X2X3X3XeXeX:X{.V.&.M M S Y W ) [ [ [ X.[ X.[ [ ",
"V.m.N.M.N.m.m.l.k.7.7.6.=.>.F. XdXbXVXVXDXBXNXBXBXBXNXBXBXBXNXBXNXBXBXNXbXbXxXkXfXaX3X2X3X3X3X3X3X3X3X3XaX3X:X{.V.%.A M A Y ) ] ' X.X...X.X.X.X.",
"N.N.N.k.b.b.k.z.P.N.z.7.>.>.F. XdXzXNXVXNXNXmXbXbXbXBXmXbXBXBXmXBXbXbXbXbXvXxXgXaXaX<X<X<X<X3X2X2X2X2X3X3X3X:X{.N.%.A M S Y ) ) [ X.....s...o.o.",
"j.j.j.j.j.4.h.j.l.m.z.k.4.4.F.|.qXjXzXzXxXvXlXvXvXzXzXzXzXzXzXvXlXlXlXjXjXlXjXrXqX;X;X;X;X+X:X+X+X+X+X:X:X:XXX`.z.&.S A G U H ' /  . . . . . . .",
"*.<.d.O.O.O.*.4.j.z.P.m.7.7.z.).|.9XtXtXtX9XtXtXtXtXdXrXrXdXrXrXrXtX9XrXrX8XqX8X[.'.'.`.`.`.`.W.`.W.`.{.{.{.`.V.j.+.P S G U ( H  .h g h h h h h ",
"l l l l l l / *.4.l.N.N.k.k.N.T.H.(.].].(.L._.].].7X8X.X7X8X7X].].].(.J.J.(.H.H.T.c.c.l.N.z.z.N.z.P.N.N.P.N.k.j.&.{ U I U Y H F s a w d d d d d ",
"0 p 0 0 * 5 a o.h.l.V.N.B.m.m.j.j.<.d.O.d.d.h.x.c.N.(.(.T.T.F.c.x.h.d.h.d.h.d.&.O.$.$.$.$.$.@.$.$.$.$.<.&.&.$.| } { ( U Y ` H h a 5 1 * 1 6 6 6 ",
"$ $ $ .     5 l O.j.V.V.B.M.u.1.+.A b b b n B R &.7.k.l.k.j.4.&.` J m m y m M M A B M A M A B A B J B B B B C P Y U ` ` ) ) H s w * .   o $ $ $ ",
". . .       5 l *.l.V.V.V.B.i.1.E M 8 8 8 9 M K #.1.2.7.7.7.1.%.P m r 9 r b b b b b M b b M M M B B B m B M B J U ` ` { ] ) H s p *     . O O O ",
"$ $ $ . . . 0 l h.j.V.V.V.M.n.q.#.A M b b m K W <.7.k.b.b.l.j.&.| J u m V C C C C C C A S G S G S K S C J C K P Y ` ] { ` ` ] F p 1 + X @ % % % ",
"* % % $ . $ p / &.j.V.V.V.M.i.w.%.T S B B J I $.1.k.b.B.B.b.k.j.&.[ L L ( _ _ _ Y Y H H U Y Y T Y U I P P P P Y Y ] ` ] ` { ( s p 6 @ + @ - - : ",
"& & * $ o $ w  .s.j.j.b.b.b.w.2.$.Y U C C G ) $.1.b.b.B.B.B.k.4.$.( L L ( _ _ ( H H H H Y ) Y Y Y Y _ U U L / F ( ( / ( ( ( D h w 1 @ + @ - : - ",
"& & & O O % 6 g  .X.&.h.&.1.%.+.} ( ( L F L ) %.1.7.B.n.M.b.b.4.$._ L L U ( ` _ ) Y ) H Y ) ( ( _ _ Y / / ( / / / F F D h F h a w , @ @ # - > : ",
": ; & & @ & 1 w g g z  ./ / / / / / / ' L L _ $.4.u.n.n.B.n.n.2.%.] H H H { ) ) ) Y ) ) ( ) ( ( ( ( ' ' X.X. .D s p p p p p w q q , # # # > > > ",
"> > > > # ; < 3 2 q q q q q w a h ..X./ / U ` %.2.b.n.B.n.n.b.2.%.` Y G H ) ) ) ) ) ) ) ( ( ] ( ' ' ' ' X. . .h g 6 * * 1 6 2 1 , > > > > > > > ",
"# > > > > > ; @ + + X       % d g  ...../ U { %.4.b.n.n.n.n.i.2.%.W Y H ) ) ) ) ) ) ) ) ( ( ' ( ' ' ' X... . .g d 1 .     + @ # # > > > > > > > ",
"> # > > > > # + + X         $ q g z ..[ / U ` %.2.w.n.n.n.n.w.2.%.W Y H H ] ) ) ) ) ) ) ' ( ( ' ' ' ' ' ..s. .g w :     X + + + # # > > > > > > ",
"> > > > > > ; # @ + X X     * w h  ...../ L ` %.w.n.n.n.M.n.i.w.%.+.H H H H ) ) ) ) ) ] ( ' ( ' ]  .] X..... .g d 1 o   + @ @ @ # > > > > > > > ",
"> > > > > > > ; ; > - % O % 6 w h  ...[ / U ` %.2.n.n.n.M.n.i.2.%.W H H ) ) ) ) ) ) ) ) ) ( ( ' ] ] ' X..... .h d 6 $ O % - - # > > > < > > > > ",
"> > # > > > > ; ; ; : % O % 6 w h  ...[ / U T %.2.n.n.n.n.n.i.2.%.) H H ) ) ] ) ] ) ) ) ) ( ] ] ] ' X.X..... .g d 6 $ O % = - - > > > > > > > > ",
"& # # ; > ; > > > : - & $ $ 6 j g  .../ / U ` $.2.n.n.n.n.n.w.2.%.+.H H H ) H ] ) ) ) ] ' ( ( ' ' ' ] ...... .g d 1 $ O % - - - > > > > > > > > "
};
