/* XPM */
static char *last_corner1691637142[] = {
/* columns rows colors chars-per-pixel */
"72 72 154 2 ",
"   c #000002",
".  c #01000B",
"X  c #010013",
"o  c #0E0012",
"O  c #03001A",
"+  c #0D001A",
"@  c #110114",
"#  c #160816",
"$  c #1D0D14",
"%  c #15011C",
"&  c #19001C",
"*  c #1C0C1C",
"=  c #1F1018",
"-  c #200E13",
";  c #210E1E",
":  c #22131C",
">  c #0C0021",
",  c #150022",
"<  c #1B0124",
"1  c #1C0F20",
"2  c #1D0829",
"3  c #1E1222",
"4  c #210F20",
"5  c #231323",
"6  c #251925",
"7  c #24142B",
"8  c #251A2B",
"9  c #2C1D2E",
"0  c #271B31",
"q  c #2C1F33",
"w  c #2C212D",
"e  c #31252F",
"r  c #362A2F",
"t  c #2D2233",
"y  c #2F2639",
"u  c #312534",
"i  c #342934",
"p  c #382D37",
"a  c #322739",
"s  c #352B3C",
"d  c #3A2E3D",
"f  c #36313E",
"g  c #3B323E",
"h  c #3F383F",
"j  c #453B3F",
"k  c #2E2B42",
"l  c #312742",
"z  c #332A41",
"x  c #392F41",
"c  c #373346",
"v  c #3C3343",
"b  c #3F3841",
"n  c #3D3448",
"m  c #413645",
"M  c #453D45",
"N  c #483E47",
"B  c #403749",
"V  c #463E4C",
"C  c #493E4C",
"Z  c #474046",
"A  c #464049",
"S  c #4B424D",
"D  c #4F484E",
"F  c #50474D",
"G  c #54494E",
"H  c #4F4852",
"J  c #544D56",
"K  c #574D58",
"L  c #584E5A",
"P  c #5E5656",
"I  c #5E5659",
"U  c #61575B",
"Y  c #5F5660",
"T  c #615761",
"R  c #645C64",
"E  c #6A5F62",
"W  c #685F69",
"Q  c #6B6165",
"!  c #6C636B",
"~  c #736665",
"^  c #756966",
"/  c #71666F",
"(  c #756B6B",
")  c #7A6D6D",
"_  c #7D716E",
"`  c #706670",
"'  c #766D73",
"]  c #7A6F72",
"[  c #7A6F78",
"{  c #7B7174",
"}  c #7C7279",
"|  c #81736F",
" . c #817473",
".. c #837A76",
"X. c #8A7C77",
"o. c #817679",
"O. c #837A7A",
"+. c #8A7D7C",
"@. c #87807F",
"#. c #8D817E",
"$. c #92857F",
"%. c #93897F",
"&. c #867C82",
"*. c #897F83",
"=. c #8A8183",
"-. c #8C8389",
";. c #938682",
":. c #988783",
">. c #958A83",
",. c #9A8C86",
"<. c #92878C",
"1. c #968C8B",
"2. c #9B8D8A",
"3. c #9C9087",
"4. c #9D918C",
"5. c #968D92",
"6. c #998E92",
"7. c #9D9393",
"8. c #9E9598",
"9. c #A1938C",
"0. c #A29693",
"q. c #A49994",
"w. c #AA9E96",
"e. c #A1979A",
"r. c #A59B9B",
"t. c #AA9D9A",
"y. c #A9A096",
"u. c #ADA19D",
"i. c #B2A59F",
"p. c #B6AC9F",
"a. c #AEA5A3",
"s. c #B2A5A2",
"d. c #B5ABA3",
"f. c #B8AAA2",
"g. c #B5ACA9",
"h. c #BAAFAA",
"j. c #BDB3AB",
"k. c #BAB1B1",
"l. c #C1B6AC",
"z. c #C1B8AE",
"x. c #C2B6B2",
"c. c #C6BBB5",
"v. c #CABEB5",
"b. c #C6BCB9",
"n. c #CABEBA",
"m. c #CAC1B5",
"M. c #CEC4BC",
"N. c #D1C5BD",
"B. c #D1C9BD",
"V. c #CEC5C1",
"C. c #D2C6C1",
"Z. c #D3C9C2",
"A. c #D8CBC4",
"S. c #D6CCC8",
/* pixels */
"3 3 3 3 3 1 3 3 w w i f g h h h h f h h h h m m m m g m v v v v v v v c v v v v v c v v c v v v v v b b h h h h h h h f f h h h n n v n n n n n ",
"3 3 3 3 3 1 * 3 w w i f g g g g f f f h g h j m h h g d g v d v h c v c v v x g v v v v v x g v c g h c h f h f h f f f h f c f v v n B n n n n ",
"3 * 3 1 * * * * * 8 w e i s p p i i i y i i i s i i u u t u u a a a s s s z y s k z s s s s s a u u u e e i i i r r i i f f f f c v n n B B B B ",
"8 8 8 8 7 7 5 6 w i f h M N N M A h A A Z Z A N C M M M M M V V N S S A V V A A V S A V C V V V A A M M Z Z h A Z Z Z Z Z b b b v c v v n B n B ",
"y a s s u u q a x C J Y R W W W W W W W ! ! W W W ! ! ! ! W ! W W W W W ! W W W ! W W ! R ! ! ! ! Q Q ! Q Q Q Q Q Q Q R I J D A v x x x x x x x ",
"v v v m x s a m C K R ` [ [ } o.} } } } } } } O.o.o.o.} &.} } } } } } { } [ } [ } } [ [ [ [ [ { } [ } { } } { ..} { { ' ! R J A c s s z x z x z ",
"B m m m x z d x C L R ` [ &.&.[ ' } ' ' ' O.{ { [ ] } { [ { { { [ [ ' [ [ [ [ [ } ' ' { ' ' { ' ' ' ' ' ( ( ( ( ( ' ' ! R I H A v s x x n n B B ",
"m B B m m d a m C L R ! [ } } [ O.{ ' ' ' ' ( ( ` ' ) ' ' ' ] ' ) ' { ' { [ } } } { } } { ' ' ' ' ( ' ) { { { { } ..} { ` Q J b s a z c B B B B ",
"v v v v c s p c C L T ! ' [ } } { { { { { ' ( { ) ' ' ) {  .O.O.@.=.=.=.=.=.*.*.*.*.=.=.=.@.+.O.@.=.<.7.8.u.a.a.a.g.a.r.8.&.! J s 7 0 a v v x B ",
"v v g c s s p g V J T W ` [ [ [ { { { { { { { { { ) _ _ { O.@.>.1.1.4.7.6.1.2.2.2.2.1.1.1.1.>.<.1.7.y.g.k.m.V.Z.Z.Z.S.b.k.8.O.Y s + > 0 d x x x ",
"v v n v v s f c V J U ! / ' ' { ' { { { { ( ( ( ) ( _ _ { ..@.=.1.4.4.7.2.2.2.2.4.2.9.7.4.1.,.,.1.4.u.g.m.M.V.S.S.S.S.V.k.e.@.Y i O , 0 x x m x ",
"m n n v v v f f C K T ! ' { { { { { ( ( ( ( ( ( ^ ^ ^ ^ _ ..+.#.>.1.1.1.2.2.2.2.2.4.4.2.2.2.:.%.3.4.y.d.j.m.M.B.Z.Z.V.b.g.8.O.I p + , a x B m m ",
"v v m v c y s c S I ! [ O.=.-.=.@.@.@.@.O.O.@.{ ..@.@.| #.#.#.>.>.1.3.2.2.2.2.2.2.2.,.,.3.,.%.,.>.4.y.d.j.m.M.V.Z.Z.V.b.k.e.O.I i + , a x m B m ",
"c v v v s y w f H R [ =.5.5.8.5.7.1.5.3.3.3.>.1.1.1.3.%.,.,.3.3.3.,.,.,.,.2.2.,.,.,.,.,.,.>.%.%.>.4.y.d.j.m.B.B.Z.S.Z.V.g.e.O.I i O , q x m m m ",
"d g f g y 0 8 s H R } -.5.8.8.8.7.7.7.7.7.3.3.3.4.4.4.4.9.4.4.2.2.,.,.,.,.,.,.3.,.,.,.,.,.,.%.%.3.9.y.d.j.m.M.B.Z.Z.V.m.g.q.O.I u O , q x m m x ",
"v h c s y t w s H Q { =.5.8.8.8.7.1.7.1.1.1.1.1.3.3.3.4.4.9.,.,.,.,.,.,.,.9.9.3.4.,.3.3.,.,.,.,.9.9.i.f.j.m.m.M.Z.Z.B.m.g.7.O.I p % , q m m m m ",
"g v g g i t w f F R { =.5.7.7.7.7.1.1.1.1.1.1.1.,.2.,.2.2.2.2.2.9.:.9.:.:.9.:.9.9.9.9.:.3.3.,.:.%.w.w.p.l.v.v.N.N.N.N.x.f.0.X.U i % , q x m x m ",
"g g g f f w w f G R [ =.5.7.8.8.1.7.7.4.4.4.1.3.2.,.1.1.2.2.2.2.:.9.:.:.9.:.9.2.+.*.9.9.,.:.:.:.%.9.w.f.l.v.N.N.N.N.N.v.f.9. .U s @ , u x v m x ",
"g g g g i e w f F R [ *.<.7.8.5.7.6.4.6.4.4.4.4.2.2.2.2.2.,.2.2.9.9.9.9.:.9.:.2.9.9.2.:.,.,.:.$.%.9.w.f.l.v.N.N.A.N.N.x.f.0. .U i + , q d d m m ",
"g g h f f w w p F R [ &.<.7.6.7.1.1.1.1.1.1.1.1.2.1.:.<.,.,.,.,.9.:.:.9.9.:.9.:.:.9.2.2.9.:.:.:.:.9.w.f.l.v.v.N.N.A.N.v.f.0. .U p @ , q d m d v ",
"h g g g i w w p C ~  .&.*.*.e.e.5.1.1.1.1.1.1.1.1.<.2.:.:.1.2.2.2.2.:.9.9.9.2.2.9.9.9.9.2.2.:.:.:.9.w.f.l.v.N.N.C.C.N.b.g.6.o.U i @ , q d d x d ",
"v h c h f w w f C W o.&.e.e.e.*.6.2.2.2.1.4.4.1.2.5.1.2.2.2.2.2.2.9.2.9.:.9.:.9.9.*.9.:.2.,.:.*.,.9.w.f.l.v.N.N.C.C.N.x.g.8.o.U i + < q d m x j ",
"v v c g p t w p C W &.*.e.e.t.e.6.1.1.7.2.1.4.1.2.2.2.2.2.2.2.2.9.2.9.9.9.:.*.9.9.9.:.9.,.,.>.:.,.9.t.f.l.v.N.N.C.A.N.b.g.7.o.U i + & q d j m d ",
"v h v v p u t g C T &.*.e.*.*.e.7.6.4.6.7.7.6.7.2.2.5.2.1.2.2.6.2.2.9.2.9.9.9.9.:.:.9.:.2.>.:.;.:.9.w.l.x.v.N.N.C.C.N.c.g.0...U p o < q d x x d ",
"g h g g a q u j C T  .&.*.*.e.e.6.1.1.1.1.5.1.1.1.1.;.<.,.1.,.2.2.9.9.2.2.2.2.2.2.2.2.2.2.,.:.:.,.9.y.f.l.v.M.B.C.C.V.c.g.7.o.U i @ , q d m v j ",
"c v v v m a u m C U W o.&.&.*.*.*.*.*.*.+.+.+.*.+.+.+.+.+.+.;.:.2.2.2.2.2.2.2.2.1.2.2.2.2.,.>.;.,.9.w.f.l.v.M.M.C.A.N.c.g.7.o.U p + , q d g d m ",
"m m v v a a u d C L T ` o.o.o.o.{ { ) { ) { ) { ) ) ) ) _ ..X.$.:.2.2.2.2.2.2.2.1.3.3.3.,.,.:.:.,.4.w.f.l.v.B.B.A.C.N.c.g.7.o.U i o , q d x m d ",
"v v m v m d a d C L T / ` o.` o.] ) ) ) ) ) ) ) ) ) ~ ^ ) | X.$.:.2.e.2.9.2.2.2.3.1.3.3.,.,.>.:.,.9.y.p.l.v.B.B.C.C.C.c.g.0.o.U p + , q x m x m ",
"x m x m l a l m C K T /  .o. .` { ] ] _ ] ) _ ) ) ) ^ ^ _ _ ..$.:.9.9.2.2.2.:.2.3.3.3.3.3.,.>.%.:.9.w.f.j.m.B.B.Z.Z.V.c.g.7...I i + % q x x d m ",
"m x m x m x q j C K T / ` [ &.` { { { { { { { _ ) ^ ) ^ ) ..#.#.:.2.9.2.2.2.2.:.>.3.3.3.,.3.%.%.>.4.y.p.j.m.m.B.Z.V.B.c.g.7.O.P i + , q d d m x ",
"x m n n x a x m C L T / [ o.[ &.{ } {  . . ._ | | ) ) ^ _ ..#.%.2.9.9.9.2.9.2.:.>.3.3.>.3.>.,.%.>.4.y.p.j.m.M.B.V.Z.V.b.g.7.O.P u + < q x m m m ",
"m x m x x l l m C L W / [ &.&.` } { { { { { { _ ) ) ^ _ _ _ #.%.2.2.2.9.9.:.9.:.3.>.3.>.,.,.%.%.%.3.y.p.j.m.M.B.B.Z.M.m.g.8.} I p + % q d m x m ",
"n n c c k y f f A J R ! ' [ } } o.`  .` / | ` | | ~ ~ | | X.X.*.:.2.:.9.9.:.9.*.9.9.*.9.:.*.X.%.9.%.f.f.l.m.B.B.B.B.m.m.p.%.%.P p + , q d v m x ",
"n n b b f f f f A J R ! ' } } } [  .`  .| ` | ` | | ~ ~ | X.X.:.:.2.9.2.:.9.9.9.*.9.9.:.9.9.9.X.%.w.w.f.p.m.m.B.B.B.B.l.p.w.X.P i o , q d v x d ",
"c b f c f f f f A J R ! ' } } { [ [  .` / |  .| / | / | | | X.:.:.2.9.e.9.9.9.:.2.2.9.*.:.9.X.9.%.%.w.f.l.m.m.B.B.B.B.m.f.w.X.P r @ & 9 d d d m ",
"h c f f f f i f A J R ! ' } } } ] [ `  .`  .`  .| / ~ | | | *.*.2.9.2.2.*.2.2.2.:.9.9.9.9.+.9.X.9.%.w.p.l.m.B.B.B.B.B.m.f.%.| P r @ & w d j j d ",
"c c h f f f e f A J R ! ' { } { ] [ [ ' W  .| ` | | / | |  .&.*.:.e.2.2.t.2.2.2.9.:.9.9.2.:.:.:.%.w.w.p.l.v.m.B.B.B.M.m.f.9.X.P r o & w p d j d ",
"f h b f f i f f A J R ! [ [ } { ] ] ] ] &.` `  .| W / / |  .&.*.:.2.2.e.2.2.2.2.9.9.*.9.2.:.:.:.%.9.w.f.l.v.m.B.B.B.B.z.f.w...P r o & 9 p m d d ",
"b c c c f f k c A J R ! ' [ } { { ] ] ] | | | | | | | / |  .+.*.:.e.2.2.e.2.2.2.9.*.9.9.:.:.:.:.%.9.w.f.l.v.m.B.B.B.m.m.p.q...P r o & q j d g j ",
"c b c h f k f c A J W ! ' } } } ' ] ] ] | ` | | / / / | X.X.*.*.:.:.e.2.2.2.2.2.9.9.*.:.9.:.:.:.%.w.w.f.l.v.m.B.B.B.B.m.d.9.| P r o & q p d d j ",
"c h b c f s i f V K T ! [ } } [ { { ] ] ] ] { ) / / | ~ |  .*.*.6.:.e.2.2.2.2.2.2.2.2.2.2.:.:.:.>.4.y.a.z.m.m.B.B.B.M.b.d.7.O.P r o % t p v m d ",
"b c b c f f i c N J R / [ [ o.} { [ ] { ] ] { ] | | ~ | |  .+.*.:.e.e.2.:.t.2.2.2.2.2.:.9.:.:.:.>.3.y.p.j.m.B.B.B.Z.B.z.d.7.O.P i o % t p v d v ",
"c b c c f s s f V K T ` ' } } { { ] ] ] ] { ) ] | / / ~ |  .&.*.:.2.2.2.:.:.2.2.2.2.2.2.2.:.:.:.3.3.y.p.z.m.B.B.B.B.B.b.d.7.O.P a + < q g v v v ",
"b c b c c s s f V K T ` ' [ } [ [ ] ] ] ] ] ) { | / | | |  .&.*.:.2.2.e.t.2.2.2.2.2.2.2.:.:.:.:.%.4.y.p.j.m.m.B.Z.Z.M.b.d.7...P a + , q x v v g ",
"v v n v f s s v C K T ` [ [ [ o.[ ] ] ] ] ] )  .| / | ~ |  .+.:.2.e.2.e.:.2.2.2.2.2.2.2.2.:.:.:.3.3.y.p.z.m.m.B.Z.V.M.b.g.7.O.P i + < t d v v v ",
"v v v v d s s x V L R ` [ [ o.[ ] ] ] | ] ] ] ] / | ~ | | X.+.*.:.:.2.e.2.2.2.2.2.2.2.2.2.:.:.:.%.q.y.p.k.m.m.Z.Z.V.M.b.g.8.O.P a + , t x v v x ",
"n v v x x z s x V L T ` [ [ o.[ o.] ] ) ]  .) ] | / ~ | | | +.:.2.:.e.2.2.2.2.2.:.2.2.2.2.:.:.:.3.9.y.p.z.m.m.B.Z.Z.B.b.g.7.O.P a + < q x x v v ",
"n n B x x s d x V K R ` [ [ o.[ [ ] ] ] ] ) { ) / | ~ | |  .+.*.:.e.2.2.2.2.2.2.2.2.2.:.2.:.:.:.%.7.y.p.z.m.B.B.Z.Z.V.m.g.7.O.I a + , q x v v v ",
"v n v n x l d x C K R / [ [ [ o.] ]  .] ] ) ) ] ) ) ) ^ | | X.:.:.9.9.2.2.9.,.,.2.3.3.1.3.,.>.%.3.9.y.p.z.b.m.B.V.V.V.b.g.8.O.P i O , t z v v x ",
"n v n x x d a m C K T / ] o.o.[ ] [ [ ] ] | ] ) ) ) ) ^ | | X.*.9.*.9.9.2.,.9.,.2.,.,.2.3.,.>.%.%.4.y.p.z.m.B.B.Z.B.V.b.g.7.O.P i O > y f c v v ",
"n v v v x a a m C K T / ` o.o.[ [ ] ] ] ] ) ] | ) ) ) | | | X.$.+.9.9.9.2.2.3.3.,.4.3.3.3.>.>.%.>.4.y.p.z.m.V.B.Z.B.B.b.g.7.O.P u O > t f h v c ",
"v n v v m z a d C L R / [ [ o.o. .] | ] ) ] ) ) ) ^ | ^ | X.X.%.+.9.:.9.2.2.3.9.3.,.3.3.3.>.>.%.3.4.y.d.z.m.B.B.S.Z.Z.b.g.8.O.P y X O 0 s c g v ",
"m m m x x d d m C L T / [ o.[ [ ] ' ) ] ( _ ( _ ) ^ ) ) | | X.X.+.9.9.+.,.,.,.3.,.,.,.3.3.>.%.>.%.4.y.g.z.m.B.B.B.Z.V.b.g.7.@.P a X > t v v v v ",
"m B B m m x a m C C T ` ` [ [ / ' ( ( ^ ( ( ^ ( ) ^ ) ^ | | X.X.+.%.9.+.%.%.%.%.,.,.,.%.>.>.%.%.%.q.y.p.z.m.m.B.Z.B.V.b.g.8.O.P p < 2 a v v v m ",
"B B B m x d a m C T W ` &.&.o.o.}  . .}  .{ }  . . .| | X.X.%.%.9.w.w.w.w.w.w.q.9.9.3.>.>.%.>.%.%.3.y.p.z.m.m.B.Z.V.V.z.g.7.O.P p & 2 u v v m v ",
"m x m x d y q x C W [ &.*.6.6.2.1.>.<.>.>.>.>.>.%.$.$.$.%.9.w.i.f.l.v.v.v.z.l.l.d.y.q.4.>.>.%.%.%.q.y.p.z.m.B.B.S.B.B.b.g.7.O.P u X + q s h d m ",
"v c v v s 0 0 p C / } <.8.e.e.e.6.6.0.9.6.9.7.4.w.*.:.:.*.t.f.x.N.N.A.A.A.A.N.v.l.s.t.9.:.;.$.$.%.3.y.p.z.m.B.B.B.S.B.b.k.8.O.P e . + 8 p x d x ",
"x x x x y 0 8 s C ! &.*.5.e.e.e.8.6.2.6.6.6.4.4.9.9.:.:.9.t.t.x.v.N.N.N.N.N.v.v.l.s.0.2.;.;.#.$.%.7.y.g.z.m.V.B.B.S.V.b.g.8.O.P i + , t d m x j ",
"v x v x y 0 0 a G W [ <.5.8.8.8.6.2.2.2.9.2.7.1.*.9.*.9.9.t.s.f.l.v.N.N.N.N.v.v.f.u.0.2.;.#.;.=.1.7.y.g.z.m.B.V.B.B.V.b.g.8.@.P p < 4 q g m m m ",
"v v v c z y t f G W [ *.5.8.8.6.2.5.5.2.2.2.2.2.9.*.9.*.:.9.f.h.v.v.N.N.N.N.v.v.l.s.w.2.>.;.>.>.3.7.y.g.z.b.m.B.S.V.V.b.g.8.O.I a < 4 u d m j x ",
"B B B v z y y f H W } *.5.8.8.6.6.2.*.2.9.*.9.9.9.*.*.9.*.s.f.f.x.n.n.A.N.N.N.v.l.s.r.9.1.>.>.1.3.7.y.p.z.b.m.B.V.V.b.b.g.8.O.P p & & q d d j j ",
"n m m v k t 0 s H W } -.5.e.8.8.6.6.0.6.9.t.*.*.*.9.*.9.9.t.f.x.n.N.A.A.A.A.A.v.x.f.r.2.>.>.1.3.7.y.a.g.z.m.V.Z.S.S.S.V.g.8.@.R p & 4 q d j l m ",
"v v v v y t 0 s H W } -.5.e.8.8.0.2.2.9.*.0.9.9.w.*.*.w.9.t.s.x.x.N.N.N.N.N.n.x.h.s.0.,.-.;.%.>.7.8.y.g.z.b.V.B.V.S.B.b.g.8.@.P p ; 4 q a m j a ",
"v v c v s y y z S Y ` } &.*.<.*.*.*.*.*.*.*.*.+.+.+.X.X.*.:.*.2.t.t.t.s.t.f.t.t.0.1.;.#.@.O.@.@.@.%.3.7.8.y.y.a.a.a.a.y.7.@.! D 9 @ ; 7 9 9 u q ",
"v v n c f f s c A K R ` [ } } } } { { { { _ _ _ ) _ _ { _ _ _ { | | |  .| |  . .|  . . . .{ | | ) | | | ) | | | | |  .| W U j j @   . # 5 6 8 6 ",
"n n n n b f f b A K T ! ' ' { [ { { { _ { ) ( ) ) ) _ _ _ { _ _ ( ^ ~ ~ ~ ~ ~ ~ | ~ | | | _ | ) ) ) ^ ( ~ ~ ~ ~ ~ | / ~ E G j 6 @   . @ 1 5 5 3 ",
"n n b v c c s v A K Y ! ' [ } [ ..{ { { { _ ] { _ ) { _ { _ _ _ | ]  ._ | | | | | | | | _ { { { | | | | _ _ ) )  . . .| ~ U N j -   . & 3 7 7 6 ",
"f s f i e u u i b A J I Y ! ! Q Q Q Q Q Q E E W Q Q Q Q ~ Q Q ~ ~ E E E E E T E T E E T Q Q Q ! E Q E E E E E E ~ E ~ E U C j r ; @ @ * 5 5 5 3 ",
"6 6 : w 6 : : 6 w a g m B C A S A A V V V C C C C C V V A A A S S C C S C V V V C C A S V V V S V V V C Z A V S C C C C m d i 8 4 - ; ; 5 5 : 5 ",
"- - $ $ $ $ $ $ : 6 9 u s d z s c k z z l l l l l l l l k z k z z z z z l k l l l l z l k k k k k k l l s s z z l l x l a q 9 7 4 ; ; ; ; 5 : ; ",
": : : : = = $ = 6 9 i d x m v v c v c c n c n n n n x x n c c v v v v n c n n c n c c c c c c n n n c c x n c x m m m m j u q 8 4 ; ; ; 5 5 5 5 ",
": : 6 = = = = = 6 9 u p x v h j v v n n n n n n n n n n c n v n v n v v v n n n x n n x c c c c c c n c n n v B m m m m x u q 0 ; ; ; ; ; : 5 : "
};
