/* XPM */
static char *last_flame_wall1691637142[] = {
/* columns rows colors chars-per-pixel */
"72 72 256 2 ",
"   c #000000",
".  c #090005",
"X  c #180106",
"o  c #030010",
"O  c #1E0613",
"+  c #1B0A14",
"@  c #1A0A18",
"#  c #14111E",
"$  c #1E121C",
"%  c #250208",
"&  c #230A15",
"*  c #261219",
"=  c #23141B",
"-  c #32161C",
";  c #1D1723",
":  c #1F1631",
">  c #241521",
",  c #281826",
"<  c #2C1924",
"1  c #351B2D",
"2  c #2B1C35",
"3  c #281C36",
"4  c #2A222B",
"5  c #37252B",
"6  c #2D2333",
"7  c #2A2537",
"8  c #352636",
"9  c #342A35",
"0  c #352B3B",
"q  c #3B2D3C",
"w  c #2E303B",
"e  c #37323B",
"r  c #3C323E",
"t  c #431D29",
"y  c #45262A",
"u  c #472B36",
"i  c #43333E",
"p  c #4B333B",
"a  c #503033",
"s  c #59393B",
"d  c #62423D",
"f  c #352D44",
"g  c #3B2E42",
"h  c #352F48",
"j  c #363244",
"k  c #3B3344",
"l  c #3A3649",
"z  c #3C3449",
"x  c #3A3855",
"c  c #4B2E44",
"v  c #423443",
"b  c #4D3442",
"n  c #453B45",
"m  c #4C3C46",
"M  c #41344A",
"N  c #453C4B",
"B  c #4A3E4B",
"V  c #573846",
"C  c #5D3A44",
"Z  c #5D3C4B",
"A  c #483E52",
"S  c #543F52",
"D  c #603445",
"F  c #633B43",
"G  c #623C4B",
"H  c #34444B",
"J  c #48434A",
"K  c #4C424C",
"L  c #52444D",
"P  c #5C424A",
"I  c #594648",
"U  c #4E4353",
"Y  c #4C4854",
"T  c #534354",
"R  c #5A4454",
"E  c #554B54",
"W  c #5B4C55",
"Q  c #554558",
"!  c #5A4759",
"~  c #554B59",
"^  c #5B4D5A",
"/  c #515155",
"(  c #5C5155",
")  c #56535B",
"_  c #5C515C",
"`  c #63434B",
"'  c #684749",
"]  c #734A4A",
"[  c #69524C",
"{  c #79544C",
"}  c #7D5C4E",
"|  c #674852",
" . c #624C54",
".. c #624D5B",
"X. c #744E53",
"o. c #675659",
"O. c #775554",
"+. c #7D5B54",
"@. c #745D5D",
"#. c #7B5C5B",
"$. c #6F655F",
"%. c #7A625C",
"&. c #4E4D63",
"*. c #5B5563",
"=. c #655B65",
"-. c #6B5C63",
";. c #615568",
":. c #745D63",
">. c #7B5D63",
",. c #715D69",
"<. c #5F6165",
"1. c #6C6266",
"2. c #666268",
"3. c #6C636B",
"4. c #776667",
"5. c #7B6363",
"6. c #756C6C",
"7. c #7C6C6C",
"8. c #7C7166",
"9. c #7B716C",
"0. c #6A6978",
"q. c #756D72",
"w. c #7B6E73",
"e. c #756A78",
"r. c #6D727B",
"t. c #767175",
"y. c #7B7274",
"u. c #76747B",
"i. c #7C747B",
"p. c #AC6B08",
"a. c #B07737",
"s. c #83564E",
"d. c #845754",
"f. c #825B53",
"g. c #8A5A53",
"h. c #815D5B",
"j. c #905A51",
"k. c #85615A",
"l. c #93745B",
"z. c #AB7648",
"x. c #B37A49",
"c. c #AA7A57",
"v. c #B47A52",
"b. c #855E65",
"n. c #876665",
"m. c #826C6B",
"M. c #946B66",
"N. c #946B6C",
"B. c #9A6D6D",
"V. c #85736A",
"C. c #9A726C",
"Z. c #95796A",
"A. c #826D72",
"S. c #856D79",
"D. c #946D71",
"F. c #9B6D71",
"G. c #837374",
"H. c #897C77",
"J. c #81767C",
"K. c #847B7B",
"L. c #9C7373",
"P. c #997878",
"I. c #A37B6F",
"U. c #BE8836",
"Y. c #C58E36",
"T. c #B9894A",
"R. c #AB8159",
"E. c #B68657",
"W. c #8F8177",
"Q. c #98877C",
"!. c #AB8468",
"~. c #B28764",
"^. c #A88A78",
"/. c #AA9278",
"(. c #C7944A",
"). c #C6924D",
"_. c #DBAD4A",
"`. c #D3AB51",
"'. c #DAA956",
"]. c #E3B64C",
"[. c #E0AD59",
"{. c #E6B856",
"}. c #DBB868",
"|. c #E4C15F",
" X c #ECCD72",
".X c #726C84",
"XX c #7A7584",
"oX c #857A83",
"OX c #8B7F8C",
"+X c #8B8283",
"@X c #88848B",
"#X c #938582",
"$X c #968487",
"%X c #958C83",
"&X c #9B8C85",
"*X c #958D8C",
"=X c #9C8D8B",
"-X c #989088",
";X c #9C918B",
":X c #8A8596",
">X c #968C93",
",X c #9C8E92",
"<X c #9B9193",
"1X c #989497",
"2X c #9D9D9E",
"3X c #A38E84",
"4X c #A68B89",
"5X c #B18E8B",
"6X c #A9958B",
"7X c #B49687",
"8X c #A38F93",
"9X c #A19293",
"0X c #A49797",
"qX c #AB9D92",
"wX c #B19E96",
"eX c #ACA29A",
"rX c #B4A79B",
"tX c #A79CA4",
"yX c #9DA5AC",
"uX c #A9A3A7",
"iX c #B5A9A4",
"pX c #BDB9A9",
"aX c #A8A9B6",
"sX c #B8B9B6",
"dX c #C39D84",
"fX c #CBAD8D",
"gX c #CBB5AB",
"hX c #C6B9AC",
"jX c #C8B8A9",
"kX c #D3B6AA",
"lX c #C7BBB6",
"zX c #D0B3B0",
"xX c #BDC2B8",
"cX c #D3C696",
"vX c #F0D689",
"bX c #FDE689",
"nX c #FBEB99",
"mX c #F9EC9C",
"MX c #CFCAAE",
"NX c #DBD6A9",
"BX c #CBC2B4",
"VX c #CEC3BA",
"CX c #D4C4B5",
"ZX c #DBC3B4",
"AX c #D5C9B7",
"SX c #D4C5BB",
"DX c #DBC3BA",
"FX c #E1CBAA",
"GX c #F4EAA6",
"HX c #F0E8B4",
"JX c #BDBCC3",
"KX c #C6BCC1",
"LX c #B9C3C2",
"PX c #D3C9C8",
"IX c #E3D7D9",
"UX c #F5E6E6",
/* pixels */
"r i k v g M M M M M v k r k r e e r e j k l M g p F j.j.j.s.a 8 c v r k e k r j j j k k l l z z z z M z v v v k k k k v r r e v v M v k z z z l ",
"r r v v M g g g M g g q q r e e e e j e e l l g p ] s.j.j.] a u c g k r k e e e j e e l k k z z z g g g k k k k k r k r r r q k k v k k z l l l ",
"r i k k g 8 f 2 2 2 2 6 6 4 4 4 4 w 9 7 w 0 f 8 u ' s.g.s.d u 1 8 0 0 q w 9 w 4 4 7 7 0 0 0 0 7 3 2 2 f 0 0 8 8 9 7 9 7 6 4 4 9 0 0 8 0 j j j z ",
"k v r v M B B B A T L E K L L Y J J J J J J N n V ' d.g.f.] C c m m m B J J J Y Y L K B N B A T E T T A K N K N n n n K T U U K K B J J l j j j ",
"r r q N _ 3.,.3.y.i.J.i.i.oXK.K.t.3.=.2.=.2.2.=.1.5.n.n.k.5.>.:.,.-.,.-.o.1.y.J.K.i.6.-.-.,.e.oXoXoXe.3.=.,.2.2.-.-.3.w.K.oXXXe.3.3.3._ l f k k ",
"k r 8 J ,.J.J.oX@X<X<X,X<X1X8X,X$XJ.t.t.XXu.r.u.w.9.V.m.V.V.m.S.S.S.S.7.7.G.*X;X1X;XW.w.>.A.OX1X0X0XOXoXe.u.t.y.t.w.J.:X1X0X>XOXK.i.i.1.J 0 l l ",
"k k 9 N =.i.w.y.+X;X<X<X,X,X1X0X*XJ.6.t.t.t.t.t.t.y.9.V.m.m.G.S.S.S.n.m.m.G.#X3X9X;XW.w.w.A.+X<X0XtXOXoXi.i.i.y.y.9.G.$X<X,X>XOXi.i.t.-.J f k l ",
"k r 9 N 3.i.w.y.W.*X*X,X,X>X,X8X*XK.9.y.t.t.6.t.t.9.9.7.7.m.G.A.7.b.l.M.n.Z.Q.3X3X=XH.m.4.w.W.<X,X,XOXoXq.t.w.t.y.6.w.#X,X,X=XoXi.y.y.2.J 0 k k ",
"k k 6 J e.+X+X+X@X-X;X;X;X*X=X8X=X$XW.+XK.i.w.w.y.y.y.9.9.V.V.m.4.n.C.c.I.C.^.3X3X&XW.9.6.8.W.>X<X*X@XK.8.r.8.r.q.8.w.#X=X8X*X*X@X+X+Xr.J w k k ",
"v v 2 U i.1X1X*X*X;X-X;X;X;X=X&X=X=X*X*X%XK.w.w.y.y.y.y.9.9.9.8.4.l.c.E.c.c.~.^.5XQ.H.8.6.t.W.>X8X1X%XK.r.8.r.8.6.6.9.+X=X9X9X,X*X*X*Xu.Y 2 j k ",
"k q , K i.1X1X*X;X;X;X-X&X=X=X&X&X=X;X*X%XK.7.7.q.6.q.6.6.8.8.8.8.l.z.x.x.v.I.^./.Q.W.8.$.8.W.*X,X,X@Xy.6.6.8.r.6.6.y.Q.9X=X=X=X*X1X*Xu.J , f 0 ",
"i q 2 K J.1X<X,X<X-X-X-X=X=X=X&X&X=X=X=X#XH.m.7.7.6.6.8.4.4.8.l.l.c.x.a.x.v.).~.!.^.Z.8.6.6.+X*X<X*XW.t.$.8.8.r.6.6.G.#X&X=X&X%X-X*X*Xt.J 3 0 f ",
"W W I @.=XiXiXeXqX-X-X&X&X=X=X3X&X=X&X*X&XP.H.H.H.H.H.H.H.Z.Z.l.l.R.(.(.`.).T.v.~.!.Q.W.Z.W.Q.-X;X-X%XK.K.K.K.K.W.K.W.%X=X&X&X0XeXiXuX*X2.U ~ ^ ",
"8.5.@.G.eXlXlXhXrX&X%X-X3X=X=X=X=X4X3X3X&X&XP.&X&X-X=X3X^.^.!.c.z.T.'.{.[.'.).x.v.!.!.^.Q.Q.-X-X;X-X-X-X-X-XQ.Q.W.%X%X%X&X&X&XiXlXVXVXiXJ.3.q.q.",
"V.V.4.W.iXlXPXlXiX%XQ.&X&X&X=X&X&X&X&X&X&X&X&X3X3X3X3X3X^.^.I.c.z.E.{.{.{.[.(.a.a.c.~./././.%X/.%X%X-X-X-X-X-X-X-X-X&X%X&X&X&XiXSXPXPXiX+Xq.y.i.",
"7.V.5.W.rXCXDXCXiX%XW.#X%X&X&X#XQ.Q.Q.&X^.Q.Q.Q.%XQ.&XQ.^.I.v.v.z.)._.].{.[.(.a.a.z.R.~.~./.Q.Q.Q.%XQ.Q.Q.%XQ.%XW.Q.&X%X#XW.#XrXVXSXBXiXK.3.y.t.",
"V.8.$.W.rXVXAXVXiXqX0X0XqXeXeXqX6XqX6X6XqXwXwX7X7X6X7X7X7X/.v.v.T.).].].]._.).Y.).T.E.E.~.!./.7XqXqX6XqX5XwXwX0X0XqXeXqXwX0X0XiXCXSXCXrXK.3.6.t.",
"V.8.$.K.iXVXVXVXlXpXhXhXhXhXjXjXjXjXjXjXjXjXBXjXgXgXgXkXgX}.v.z.z.Y._.].].].].`.'.'.).R.c.E./.kXMXjXhXjXzXzXzXgXjXhXjXhXhXhXjXBXlXCXCXiXK.6.w.w.",
"9.9.$.W.iXVXPXBXBXVXVXVXMXAXCXMXMXMXZXCXCXZXZXAXZXZXkXFXkXfXv.z.c.)._.].].].].|.{.'.).T.z.c.dXFXZXDXCXSXDXDXDXDXSXSXSXSXSXSXSXSXBXCXAXrXW.3.i.w.",
"9.9.1.W.iXPXVXPXPXSXVXSXCXAXCXCXZXCXZXZXDXZXZXZXZXDXDXZXZXfXI.x.z.).].|.].].].|.'.'.).E.z.R.dXkXFXZXzXDXDXDXDXDXDXDXSXSXSXSXSXSXCXAXAXiX@X3.i.i.",
"1.1.$.i.uXxXBXsXlXlXlXhXjXgXgXgXgXgXgXzXkXgXgXgXzXzXkXkXkXfX!.c.I.E.'.]._._.].|.|.}.).R.c.!.7XkXkXkXzXzXzXzXkXkXgXkXgXgXlXjXhXhXjXjXjXeXJ.=.3.q.",
"/ L J o.%XeXeXuXeXwXwXwXqX7X^.4X^.6X5X4X5X5X5X5X5X5X5X5X5X^.^.^.!.~.(.Y.Y.`.|. XnXvX}.R.c.!.^.7X7X5X5X5X5X5X5XOX5X6X7X7XwXwXeXrXeXrXrX%X=.K ~ ~ ",
"e 9 > J G.*X=X%X$X4X&X4XP.N.M.M.N.N.N.N.M.B.B.B.F.N.M.n.n.L.^.6X^.!.a.p.p.(. XbXmXmXcXW.I.^.P.C.M.M.M.B.N.N.N.M.M.l.M.W.^.Q.&X&X&X;X;Xy.K 3 0 e ",
"r e , K i.*X*X%X$X=X4X9XP.L.M.B.B.C.N.N.N.B.L.L.F.D.n.n.n.C.Q.Q.Q.!.a.p.p.(. XnXmXNX}.!.W.Q.P.L.C.B.B.B.F.F.N.F.M.M.C.P.3XQ.&X&X&X;X;XG.J : 0 0 ",
"n k 6 L i.;X;X;X;X8X8X4X4XL.F.I.L.L.L.L.L.F.B.D.D.P.OXL.H.Q./.3X/./.T.U.a.T. XnXmXvXcXQ.Q.-XQ.Z.M.M.F.F.F.F.F.F.B.C.L.Q.3X3X&X;X;X9X3XH.J 6 f k ",
"l j 6 K i.<X<X;X=X3X4X4XOXP.B.F.B.B.B.C.N.h.] G O.$XwXwXeXfXcXcXcXcX X|.{. X XnXmXGXcXqXuXpX*XO.D F d.F.I.F.F.F.C.B.L.I.3X3X&X&X-X3X;XH.Y 3 k k ",
"f f 2 T u.<X;X-X4X$X$X4XP.L.B.F.C.C.C.C.n.d X   u 8XKXzXjXAXHXHXGXmXbXbXbX XbXnXmXGXNXpXxXLX1X9   X D F.F.F.F.F.B.F.L.Q.3X&X&X%X%X3X;XG.Y 7 j l ",
"z g 7 E W.1X0X0X<X,X8X8X$XP.L.L.L.C.C.I.N.d     8 8XKXKXAXPXHXHXGXmXmXnXnXnXnXnXmXmXNXxXVXLX1X9     D F.5XI.F.OXL.L.L.4X3X;X;X9X;X9X6XK.L 7 j l ",
"z g 0 T i.>X1X-X,X=X8X8X8XP.D.oXP.C.L.I.F.' .   q *XlXKXsXAXHXHXGXmXmXnXmXmXmXmXGXHXMXxXsXsX@Xr   . ' N.L.OXF.F.F.OXP.$X*X*X;X=X=X9X9XK.T 7 k l ",
"z z 0 B =.i.y.u.i.G.G.K.S.>.>.m.>.n.b.n.#.s %   5 oXuXuXeXhXAXNXNXNXNXNXGXNXNXNXNXNXpXyXyXuXi.9   X V #.N.b.M.b.b.>.>.7.G.y.y.y.y.G.G.1.J 7 j l ",
"z M k k J J J N m n n m B m b b V G G G V y &   , =.OXi.u.1XpXBXxXMXpXpXpXpXpXpXxXpX2Xy.i.oX2.4   O y C F G C V V b m B K B K B m m K N j j j l ",
"M M k k w 7 7 3 2 , , 2 2 0 8 2 q c C a u 1 &   ; _ i.e.0.>XsXVXsXsXsXxXpXxXpXxXLXxX-X0.6.r.) ;   X 1 u c D u u 8 8 2 8 2 7 2 2 2 2 3 7 j l j j ",
"k M v k e w w j e r r k k g g 0 b D G G V 1     ; =.oXXX.X2XJXPXxXLXJXJXJXJXJXJXLXLX2Xr.r.u.<.;     5 b D D V c v v q g g f g g g q k j l l l l ",
"v v z M l z J J N n J J B B I I Z | G G G d a y p ..3.2.=.@XyXaXyXuXaXaXJXyXyXyXyXyX@X<.<.<.( p a a s ' | ' G Z m m n n m N N N N K B N z l l l ",
"M v v v Y W ~ / E / I I [ [ } { X.{ s.{ s.s.s.{ { I r 9 e ) 2.r.0.XX@X:X:X.X.X0..X0.) e 4 e d } } { { { d.+.O.W R I E W E E E E / / / L l j j l ",
"g b g v E _ _ ( ( ( ( ( [ %.} s.g.g.g.g.g.j.j.k.f.s       4 H H H &.0..X.X.X&.x Y N 6     . d %.k.k.g.g.f.f.+.O. . .( W ( W ( ( ( _ ( Y n j l j ",
"M M c z L ( ^ W / ( ( ( [ #.+.} d.g.g.g.g.g.f.g.s.s X     e / / &.*.e.XXXX.X0.&.*.&.r     X a { d.f.f.f.s.} O.[  .W I W W ( ( W W E ( K l j h z ",
"M M g M ~ _ _ ( ( o.[ [ @.%.%.%.h.f.g.h.g.s.s.f.} d y 5 y i J Y J _ e.i.XX.X&.B Y E n 5 5 y d { f.f.f.f.s.} +.o.o.o.o... . . .( _ _ _ E l j z h ",
"k g q M ( =.2.o.o.o.o.$.#.8.m.n.n.h.h.d.f.s.s.f.} { d ] [ P q 9 w n ..-.,...A 0 w r I [ [ [ { } } f.} f.} } %.5.4.4.4.,.@.-.@.o.,.-.-.^ N f z z ",
"g g g b o.1.1.%.$.$.@.O.5.m.G.V.n.b.+.d.{ s.f.s.s.} f.k.+.' -   . 5 V ' W I 8 .   -  .8.k.} %.} } } } } k.%.k.m.A.A.S.>.>.:.>.4.,.,.3.*.A f z z ",
"v k f N ..3.3.1.%.@.#.@.%.7.A.G.m.>.h.d.d.f.f.d.s.h.k.k.n.' %     % y a a u &     % ' n.n.%.k.} } } } } +.+.#.m.A.G.A.5.>.>.>.:.,.1.4.;.N f z z ",
"z M f N *.6.1.%.@.%.#.+.5.m.w.G.7.n.#.h.f.f.f.+.d.} f.f.+.` 9 : , m @.n.7.:.V ; ; 6  .@.%.+.} } } } } f.+.#.#.m.A.A.S.5.>.>.>.:.,.,.,.^ M h h z ",
"z l f N *.2.1.@.%.#.#.#.5.7.G.m.5.>.+.d.+.d.+.f.+.] d s s W ..*.&.oXiXlXsXuXXX) *.=.W s s s ' } } } +.%.+.#.#.m.G.G.m.m.#.#.>.:.-.1.1._ A h z z ",
"l h f N _ 3.2.o.@.#.#.#.5.7.9.A.7.#.+.+.f.+.+.#.} s %   X E t..X.XtXIXIXUXPXtX0.XXi./ X   % d O.%.k.+.+.#.O.>.7.m.A.m.5.@.@.@.@.@.1.1._ M f z z ",
"x h h A *.3.3.=.#.%.#.@.5.7.w.A.m.>.#.h.h.h.h.b.#.s X     E .XXX.XyXIXUXUXIXuXu.XXXX~     X s +.k.%.h.h.#.#.n.m.A.A.m.7.>.#.5.1.1.1.6.*.N f l k ",
"h h h U *.2.3.3.1.@.@.:.4.6.S.S.A.>.#.h.h.h.h.h.#.s * . & E e..X.XtXIXUXUXIXtXe.u.i.! % . & s d.k.+.#.+.#.b.>.7.A.A.m.4.>.@.:.:.1.3.3.*.N g j k ",
"h x z l Y *.^ ^ (  .( W ..o.=.-.o.X.X.X.d.X.X.X.] d u y y m ( &.x oXiXlXkXaXOX~ *._ S u t y F { X.] X.X.X.o.O.o.o.-.4.o.[  . .( ( ) ( Y M g k l ",
"z z f j l N n v n i i i i v v c c D C G G F F F F D F C b u 6 ; # T n.P.P.b.C @ @ 5 p G F s F F ' d F F C C V b n i i i v i p v k l z k l l k l ",
"M M h g j k g 8 0 0 0 0 8 8 8 8 u c Z D D D D s D F F F V u %     t ] g.d.] y     % c G G F F D s s D s V V p u 9 9 5 8 q 8 q q 0 0 f g j k k j ",
"M l z k k v k k e k j j k r i p c Z G G Z D C C D D C C V p < o . s d.M.N.#.s X X - p Z G D s V s D s D C Z V b q q e e i r r r f g f j k k k k ",
"v g g v M B B A N K N J N J b m B ` | ` Z G Z Z P G Z G ` c < o o p X.b.b.X.s X X < b | G G Z Z Z ` G G P R L V n n n J B B B B A A A N l j l k ",
"k v g M T ~ ~ ^ ~ &.~ ~ ~ W E I W ..! W S .... . .!  .....m < . @ u ' O.O.| u % X < b  . .| | `  .|  . . .W W W ~ E E ~ E ~ E ~ ~ ~ ~ Y n j k l ",
"v g g n T ^ *.^ ~ *.*.) ( _ _ ( W _ ..W W ......W ^ ! ;...B , o o y P [ | ' u % X = B ....................( ^ _ _ ( _ _ _ *._ _ _ ..;.Q l j j l ",
"k v k m Q _ ^ *.*.*.~ ^ _ ( ( ( ( ( ( ^ ( _ ( ( W ^ ^ ^ ! M ,   o u ' X.X.` 9 & X < V o.;.....! !  .W ..( .._ ( _ ^ ) *._ ^ *.^ ^ ;...Q l j l l ",
"k v k M U ^ ^ ~ ~ ~ ~ ~ ^ (  .( ( ^ W _ _ ( ( ^ ! ^ _ ^ ! m 8 4 5 i I R P m 5 & X < m ......^ Q ! ! ! W ^ W W ^ ^ W ~ ~ ^ ^ ~ ^ ^ ! ^ T n j j l ",
"j k g k A U Y Q Q Q T T E W W W W ^ ( _ _ ( / E ~ ( _ *.*.E U K K J p 5 u 5 - & & < c Q R Q Q T R ! ! T ! T E R E R Y ~ ~ Y Q Q ~ Q ~ U k l z z ",
"j j j k x U U U S S S S S ! ! ^ ! ^ ( _ _ ^ ~ ~ ~ ( _ ;.*._ ~ ( _ L 4   X + + = & * i B T S S S S Q &.S S S S S T T T T U Q U U U Q T A z g z z ",
"k l l l A Q U U U T S S ......_ *.^ ^ _ _ ^ ( ^ ( _ _ ) _ _ ( ( _ L 4   . + = * & < c S Q Q Q S Q S S S Q S S S T S S Q U Q U U U U Q A z j z g ",
"l l l z U Y Q Q Q Q R ..! ^ ..*.^ ~ ^ ~ ^ ^ ^ ! ~ _ ^ W ~ ~ ~ W _ K 9 $ = , > * O < v T ! Q Q U S Q S Q Q S S S S S T S Q Q &.A U Q T B z j z z ",
"e k j l A U U T S S S S S Q Q Q E Q ~ ~ E ~ ~ Q T T E T E E T E ^ E n r n i 2 & O < n R R T S T Q S Q A Q Q Q S T S S Q A S Q S T T Q B v j k M ",
"e k r n N U T Q S S Z S S U U A U T Q T T Q Q T U T S T T K K K T U T K E B 8 O X > n R T B L T U U Q S A Q Q Q S S Q S Q Q S Q T T T T z k k k ",
"k k k n B T T R R R S S T Q T U T T T U T ~ ~ R T T T T E T T T E E T E E L 9 & O < b ! ! S T ! Q U S &.Q Q Q Q Q Q Q S Q Q Q Q T T R A v k v v ",
"k k k v B K L R R Z P R T E U U T U T B U T E T T S T I R T T K U T Q T R B 9 = O , p T T S L ! T T A Q S S S S S S S S S S S S S T Q B k g g k ",
"8 9 9 9 q r i v i i i i i v v k r i r i q v v i i i v v p i e r v r i i i e 2 = + , 8 i i q r i i i g g v M z v c M g c M g c h i i i q 9 6 6 5 ",
"= ; ; > > , < < = - > < > > > = > ; = > = = ; = = = = = < = = = = , = > < , > $ @ $ = < = = = = = 4 = 4 = , > > $ > = = > > > > > * > > > > > > ",
"$ $ $ $ @ & @ & O O % O O + + + + + + $ # + + # + $ + $ + + * + + + + @ @ @ $ = $ $ $ @ + + + X X + + + @ @ @ @ + $ $ + O @ & & O O O O $ $ $ $ ",
"; ; $ ; > > > = * = * * * = = = $ = = = = $ $ = = = = = * = = = = = = = > = > $ ; = $ = = = * * = = = $ > > 3 @ $ = $ = * = * * = * = > = ; ; = ",
"= > = $ & * * > * + = * = = = = = $ = = = = $ = = = = = * = = = = = = = * > = > = = $ = $ $ * = * = = = $ > > = = $ = = = = > = * = = = = = $ = ",
"= = = = = = = = = = = = * = = = = = * = = = = = = = = = = = = = = = = = = = = = = = = = = = = = = = = = > = = = = = = = = = = = = = = = = = = = ",
"= = = = = = = = = = = = * = = = = = = = = = = = = = = = = = = = = = * = = = = * = = = = = = = = = = = = = = = = * = = = = = = = = = = = = = = = ",
"= = = = = = = = = = = = $ = = = = = = = = = = = = = = = = = = = = = = = = = = = = = = = = = = = = = = = = = = = = = = = * = = = = = = = = = = = ",
"= = = = = = = = = = = $ * = = = = = = = = = = = = = = = = = = = = = = = = = = = = = = = = = = = & = = = = = = = = $ * = = = = = = = = = = = = = "
};
