/* XPM */
static char *last_floor1691637142[] = {
/* columns rows colors chars-per-pixel */
"72 72 25 1 ",
"  c #2A1D2E",
". c #2C1F31",
"X c #2E2132",
"o c #2E253C",
"O c #2F293F",
"+ c #312435",
"@ c #30263D",
"# c #32293E",
"$ c #382D3E",
"% c #342C43",
"& c #392F46",
"* c #363147",
"= c #373248",
"- c #393349",
"; c #3E394F",
": c #3F3A50",
"> c #40374D",
", c #40384F",
"< c #463D55",
"1 c #483E56",
"2 c #4A3F58",
"3 c #464056",
"4 c #484057",
"5 c #474258",
"6 c #4A4158",
/* pixels */
"---=====-=-=--=-======:==========:=================:====:===:=======:===",
"-=--===---------===:=======::=======:=====:===:======:===========:======",
"-----=------=--=:=======:======:=====-=:=========:========:===:====-==:=",
"----=-----------=====:============:==-==:===:==========:===========-====",
"--====--:===-==-======:==-===:========:=============:===:===:=-===:-====",
"----==--====-======:=====-=========:======:===-:=======================:",
"--------==-====-:===============:============:========:===:=========:===",
";-------==-=--=-=====:====:===:======:==:=======:=--===========:=:======",
"======:====:====-=-====--=------==:==:===:====:====:===:========--==--==",
"==*==========:===--====:--==----=========================:===:===-------",
"===-=======::==:=-=-:====-------=================:===:==========-=-==---",
":===::=-========----=====-=-----=:====:===:===:============:===:-=----=-",
"::5:::::========-----=----=-----=::================:======-=====----====",
"5555555::=======-------==--=----========:===:=========:===-==:==----=;==",
"555:5:5:====:==:---------=--=-======:==:===:===:=:=======::=====--======",
":5:555:::==:==:=--:-----;-;--=;;=:=:================:==========:-====;;=",
"55533<:3<::<:<<:<::<::<::::::<::,,-&---&--=-==--===:====:===:===========",
"33:333<33<<2<<<<<<<<<<<<<<2<<<<<<,-&->&>--=--;=======:=======-:======;==",
"3:33<<<<3266<523<<<2<5<<<5<2<252<,>&->----=-----===-======:==:==========",
"333:<<3<<3<<<3<<<<<<<<<<3<<<<<<5<,-&---&--==--=-===-===:==========;==;=;",
"<3<<3<<3<323<6<3<<3<<<<<<<5<<<22<,-&>&&--&--&--=:===:====:=====:=======;",
"<<<3<<<<<<<<<<<<5<<<<23<<<<<<<55<,;----&;&&;----==================;=;;==",
"<<<<<<<<3<<33<<<<<<<<<<<<33<<<<<2,-->&&&--;&----==:===:=========;==;====",
"<3<<3<<3<<<<<<<3<<3<<3<<<<<<<<<<,,>-->->--;-&-============:====:======--",
"<3<<3<<3<<3<<3<<<<5<<<<<3<<55<<<2,;;;,,,<;;;----=========:======--===--=",
"<<<<<<<<<<<<<<<<<<<<<5<<<<<<<<5522<<<<<2<<<<;;=-===:===:=====::=--=====-",
"<33<<<<<3<<33<<3<<<<<<<<5<<<<<252<22<22252<<>---:===:=======-===--=-==--",
"<<<<3<<3<<<<<<<<<3<<<<<<<<<<<<<<<<<<<<<<<5<:;&--===========:-======-==-=",
"<<<<<3<<<<<<<<<<<5<<<<<5<<<5:5<::<<<<<<55<5<-:====:===:=========------*-",
"<3<3<<<<3<3<<3<3<<<<<5<<<<<<<<<<<<<5<<<<5:2::==:===========:====----;---",
"<3<<<<<3<<3<<3<<<<<<<<<<<<<<<<<<<<2<<<<<3353--==========:=====-=----*---",
"<<<<<3<<<<<<<<<<<<<5<<<3<5<<<<5<5<5<<:<<355::-===:===:=======:==--;-*;--",
"<2<<<<22<<22<<>2<<<11111111444142<5<<<<<<36<--------------==-=-::;;;;;--",
"<,222<<><<<>222<1<121111111>1>11<<<<5<<:633<;------=------===*:52:<<<:-*",
",2>2,2,2<<<<<><<<11>>12>>111111><5<<2<<<333:------=--------:--:52:255<;*",
",2<2<2<2><2222<<2>1111211111>111<<<<<<<<333::---------===-=:;::5<:2522-%",
"22222>222>222<<2222<1>2>11<<1>11<<<353<<<63<;----------==-;::<<<:<2522;&",
"<><<<22,22<222>22><<112111>11111<<<<<<<<333:---==------=*--:33332<2222;&",
"<22>>22>><<<<><<2>1>1111>1111111<<<<<<<<<33::--==------=**-:3633<<22<<;-",
">,222<22222>22><2222>11111111>11<<<<3<<<333<:--==--=---=**-<366<22:--=--",
"2222222,22<<<2<<<<<2><<<111111412<<<<<<<<22,---===--=---**-:533322-%%%&-",
"22222<2222222222>2<222<144>44>>1<<<<2<<<<<2,;-==-:--===-**;3533<<<=OO%*&",
",>2>>2<<2,2<<<<22<<2111<1>>14>11<2<2<<<<<2<<;&==-:--===--=;:<<<<<;&OoO%&",
">>>>>>>>>>&>&>,2222>12>111411111<<<<2<<<<<<<;-===--==-=------;;=;-&%%%&&",
"%%%%@&%%%%@%%%$>111><21144441<<<<22<2<2<<6<<--=---===;==***%%=%%&&&&&&-&",
"@@@@@@@@@@@@@+><111<1>>1>4>4><<1<<<22<><<2<<;--=-=====-;=*%O%oo%@@%&-&--",
"@@oo@@@@@@@@@@$>111<1121444>111<<<<<<1<1<2<<;---=*==;=;-==%Oooo%oo&---&-",
"%@%%%@%%%@%%%%>>41111>11>441<1<<<<<<<<>22<3<;&=-====-====-*%oo%%%%&,-&--",
"&&&&&&&&&&&&&&>211111<4444>4,44<2,<<2<<<1<<<;-=-:==-:==*====**==-*---=--",
"&&&&&&&&&&&&&>&222444144444444442222222<62<<;-=-==--=-====:=====-------=",
"&&&&&>&&&&&&-&>2<<<<14<44411444<22<<<<<<631<;---=--==-:=:=-=---------=--",
"2>><>>>;>><>,>>&;;;&>>>$>>>$>>>;>-;;;;;-;;>-----=---========------------",
"2><>2<<<<,,<22&&%%%%%%%&$$O*$$%%%&%%%%%%%%%%*==-=========-=---------=:==",
"<2<<<2<<<22:2>,% ooooooo+++#oooo@@@@.o%oooo%%*--=:===:==----------=-====",
"<<<<<<<<<<<<<,,%oooooooo+#+Oo+ooo@oo.%ooooo%**--========--=-----==:=====",
"2<<<<<<<<22<<22&%o%%@%%&$$OO#O#%@&@@%%%%o%o%*-=====:===:=--=----===-==:=",
"53<5<5<<222<<<<-&&-&-&-&-&&-&&&&&&&&&&;&=**=----========--=--=--=====:==",
"<2<<<:<2<<22<2<-&&-&--&->--&>-&&&&&&;&;&-===--=-:===:===---==--=:=======",
"<<<<<<<::<<<<<:;&-&-&&-&&&&&&&->-&&-&&&&---===-====:===:-------=--======",
"<<<<<:<:2<<<:<<--&-&--;&--;&---&--;&;;&;----==--========--=---=-======:=",
"5<3<<<2<2<<<22:;&;&&&;&;>&-;-->>-&&;&&-&:-:-===:-==::====--=---=======:=",
"<2322523<<2<2:<--&&;&&;&&;-&&>--;&;&;&--==--====-=======--=-----===:====",
"<<232222222222<---&&-;&;&;>&----&&&;---&:========:====:==-=--=--:=======",
":;;;;;;;;;;;;:;-&&;;&&&;-&;&&>&---;-&---===:=============---=---=====:==",
"%%%%%%%%%%%%%*%*----&>&&;&-;&-&;----=--;--**==-=------=-=:===========--=",
"OO@@@@@@oooo%o%*---&-&--&-&-&--&----&-----*==-------=-=-====:===:======:",
"@@+@+@@@.oooooo%-&--&&-&;;&=----=-=-------=-=--==-------=======:===::===",
"oXX+$$@%%%@%%oO%;;-&>&->&&;&---=-------=-----=----=-==-===:=============",
"+++$$$>$&&&->--&&&&>&-&--------------------=---=---=--=-=:===--===:=====",
".XX+$>>>-;-;>->&;&--&--------;----=--------=-=-===--=-=-====:=--=======:",
" ..++>$&-&--;&&&&;&->&-&----------=--=---=--==---=------======-=====:===",
"  .+$$&>&&&&;&&>-&&-&&&>------------=------=--=---------==:===-==:======"
};
