/* XPM */
static char *last_ladder1691637143[] = {
/* columns rows colors chars-per-pixel */
"72 72 197 2 ",
"   c #0A0000",
".  c #140004",
"X  c #1A0104",
"o  c #1D0B06",
"O  c #15030B",
"+  c #1B040B",
"@  c #1C0B0D",
"#  c #1C110F",
"$  c #160412",
"%  c #1C0712",
"&  c #170912",
"*  c #1D0C13",
"=  c #170A19",
"-  c #1C0E1C",
";  c #1E1315",
":  c #1E111C",
">  c #220807",
",  c #21050A",
"<  c #210C0D",
"1  c #23110E",
"2  c #2A1A0F",
"3  c #210E13",
"4  c #210F1C",
"5  c #231315",
"6  c #291614",
"7  c #271813",
"8  c #2B1B15",
"9  c #23141C",
"0  c #29161B",
"q  c #25191D",
"w  c #2C1C1B",
"e  c #301D16",
"r  c #311F1A",
"t  c #2E221E",
"y  c #34241D",
"u  c #38251E",
"i  c #36281E",
"p  c #3A2A1F",
"a  c #1C0F20",
"s  c #1E1221",
"d  c #231521",
"f  c #2A1620",
"g  c #261A24",
"h  c #2C1D25",
"j  c #261C2B",
"k  c #2B1E2A",
"l  c #301F23",
"z  c #311F2D",
"x  c #291F30",
"c  c #2E2123",
"v  c #2E202A",
"b  c #342522",
"n  c #392722",
"m  c #372922",
"M  c #3A2B24",
"N  c #34242C",
"B  c #38262D",
"V  c #372929",
"C  c #3C2C2B",
"Z  c #3A3027",
"A  c #3E322B",
"S  c #2D2233",
"D  c #2E2638",
"F  c #342534",
"G  c #382736",
"H  c #362935",
"J  c #3A2C35",
"K  c #332639",
"L  c #392738",
"P  c #352B3C",
"I  c #392C3A",
"U  c #3F3037",
"Y  c #3E323D",
"T  c #422E26",
"R  c #412F29",
"E  c #433326",
"W  c #43342C",
"Q  c #49362C",
"!  c #45382D",
"~  c #4A3A2D",
"^  c #533E2E",
"/  c #412E3B",
"(  c #443432",
")  c #483631",
"_  c #463A32",
"`  c #4B3B33",
"'  c #42343E",
"]  c #4C3D3A",
"[  c #523E33",
"{  c #513F38",
"}  c #4C402F",
"|  c #56412D",
" . c #5B432E",
".. c #4E4134",
"X. c #4E413A",
"o. c #544335",
"O. c #5B4634",
"+. c #564937",
"@. c #594837",
"#. c #54443B",
"$. c #59463B",
"%. c #57493C",
"&. c #5A493B",
"*. c #644C3C",
"=. c #66523F",
"-. c #362D42",
";. c #3A2E43",
":. c #3B2F4A",
">. c #363246",
",. c #3B3245",
"<. c #373249",
"1. c #3B334A",
"2. c #3F384F",
"3. c #423543",
"4. c #483741",
"5. c #453A44",
"6. c #4A3A44",
"7. c #41364B",
"8. c #43394C",
"9. c #4B3D4D",
"0. c #443A53",
"q. c #4A3E53",
"w. c #4C3E59",
"e. c #4F414E",
"r. c #554543",
"t. c #584643",
"y. c #554A42",
"u. c #5B4B43",
"i. c #51424E",
"p. c #594748",
"a. c #5C4C49",
"s. c #5D5145",
"d. c #5E5248",
"f. c #4D4155",
"g. c #4D425A",
"h. c #524453",
"j. c #584656",
"k. c #564856",
"l. c #594956",
"z. c #52445A",
"x. c #58475C",
"c. c #55485A",
"v. c #594859",
"b. c #634E45",
"n. c #614F49",
"m. c #655144",
"M. c #6C5443",
"N. c #62534B",
"B. c #6B554A",
"V. c #675A4A",
"C. c #6D594A",
"Z. c #735643",
"A. c #745A45",
"S. c #7A5D45",
"D. c #71574A",
"F. c #745B4B",
"G. c #7A5E4A",
"H. c #675451",
"J. c #6B5752",
"K. c #665C52",
"L. c #6B5A53",
"P. c #6D5F58",
"I. c #755E52",
"U. c #795F52",
"Y. c #7D6047",
"T. c #77604D",
"R. c #7C624A",
"E. c #6D6254",
"W. c #746357",
"Q. c #7A6254",
"!. c #7E6855",
"~. c #73635B",
"^. c #7B645B",
"/. c #776A5E",
"(. c #7E695A",
"). c #7C7165",
"_. c #7F716B",
"`. c #826656",
"'. c #856B56",
"]. c #8A6D55",
"[. c #836B59",
"{. c #8A6F59",
"}. c #8E7157",
"|. c #8C725C",
" X c #92765E",
".X c #95785F",
"XX c #866F61",
"oX c #877060",
"OX c #8D7463",
"+X c #81746C",
"@X c #907663",
"#X c #947A63",
"$X c #997D64",
"%X c #967B68",
"&X c #987E6B",
"*X c #877873",
"=X c #9B816E",
/* pixels */
"2.1.<.>.>.>.<.<.>.<.2.1.,.>.1.1.1.>.-.-.1.1.;.1.1.7.1.,.1.1.;.,.1.1.<.<.<.>.1.>.<.:.<.:.2.:.2.:.<.<.<.<.<.1.<.<.<.>.,.,.1.<.>.,.1.:.1.1.1.<.<.<.",
"1.1.<.<.>.<.<.<.>.1.,.,.,.<.1.1.1.,.:.>.1.1.1.1.1.1.,.1.,.1.,.1.1.<.<.<.>.1.>.1.:.:.:.2.2.:.:.:.<.<.<.<.<.1.1.1.>.,.,.1.1.,.>.<.<.1.1.1.1.<.<.<.",
"1.<.<.<.<.>.>.<.1.1.>.>.>.,.,.,.,.,.,.,.1.1.1.1.,.1.,.;.;.,.,.,.<.<.<.<.1.1.>.1.:.<.:.2.2.:.<.<.,.1.2.<.1.<.1.,.1.,.,.,.1.1.1.>.1.;.:.1.1.<.<.<.",
"<.1.<.<.>.1.<.,.,.,.,.>.,.,.,.,.,.,.3.,.,.,.1.1.;.;.,.1.1.,.1.:.<.<.<.<.<.>.>.<.<.:.2.:.<.<.<.:.,.,.,.1.,.,.,.,.8.,.,.,.1.1.;.1.1.:.1.1.1.<.1.1.",
"1.<.1.<.>.,.,.1.,.,.Y ,.,.,.,.,.,.,.3.,.,.,.,.,.;.,.,.1.2.1.1.1.<.>.>.>.<.>.<.2.1.1.1.<.>.,.,.,.,.Y ,.Y ,.,.,.,.,.5.,.>.,.,.1.1.1.1.1.1.1.1.1.1.",
"1.1.<.<.,.,.,.,.,.P P P Y Y I U Y Y Y P I I L L P P ;.1.1.7.1.1.>.>.>.>.>.5.2.<.1.<.-.-.P P P U P P J J H H H J Y P J H P -.,.,.1.:.1.1.1.1.1.1.",
"<.<.<.<.<.,.,.>.D v j v v j v v v v k k k v j j j x S K ,.,.1.1.2.>.>.2.>.>.>.>.>.-.P D S j j g c k h h v v k k v j k j j S ;.,.1.1.1.1.1.1.1.1.",
"<.<.1.1.1.,.>.P s = - : - ; * ; * @ @ * 9 9 - * - s d S P 1.;.:.>.>.<.<.5.>.>.5.>.>.D S s - & + & # 5 5 9 5 5 % @ & - - = j P ,.1.1.1.1.1.1.:.<.",
"2.<.<.1.1.,.,.P j = 4 - * + . X + X . . + * $ $ $ a j x :.:.:.:.>.>.<.<.,.,.,.>.,.>.D v d - % + X . . X X X + + + ; ; : = j P ,.1.1.:.1.:.<.1.1.",
"<.<.1.<.1.,.,.P j ; 4 f B C V n M M n b B C b f 4 - j K 1.0.2.2.5.>.>.5.>.,.,.,.,.Y D s : 5 c b u u u n n n n R C V h : * g L ;.1.1.1.1.1.1.1.1.",
"<.<.1.1.>.,.,.H g - 4 C p.l.n.n.n.n.b.n.m.a.r.] z - j D ;.1.:.:.>.>.2.1.,.,.Y ,.,.,.S : * h ) 6.b.b.b.b.b.b.n.n.N.r.J 9 = g P ;.-.1.>.:.;.1.:.1.",
"<.<.<.>.,.,.,.H g : 3 ) J.^.~.I.U.W.W.W.W.P.H.6.N - g K ;.7.7.:.2.1.1.5.,.,.,.,.5.Y S : $ n { B.W.^.U.U.U.U.U.U.~.J.) 3 * g H ;.;.1.1.1.<.1.1.1.",
"<.<.<.<.,.,.,.H j 3 + ( L.^.U.I.T.W.F.W.I.L.B.r.b $ d x ;.7.:.:.<.,.1.2.1.;.,.,.8.,.v 9 O b { B.F.T.G.F.F.F.U.U.^.I.) + % f P ,.,.1.1.:.:.<.1.1.",
"2.<.<.2.7.,.' J f < X ) J.Q.I.D.A.C.D.F.F.B.b.{ l O s K ;.7.7.7.1.1.1.2.1.1.,.,.5.5.F 9 O b { M.D.F.Z.Z.Z.Z.D.U.^.J.) + % k I 3.2.1.1.1.<.;.1.1.",
"<.<.<.2.1.8.5.' k < X ) D.Q.D.Z.A.A.A.A.F.D.m.{ r O d F 5.0.0.0.f.2.2.2.0.8.8.8.f.5.H g O y ^ b.=.`.A.Z.Z.Z.Z.D.U.B.W , % h ' 6.8.2.2.2.1.:.:.<.",
"<.<.<.<.0.9.9.3.z , , ) D.U.G.A.A.A.Z.A.T.F.b.{ y O d L 9.q.w.w.g.g.g.0.w.q.w.w.f.8.H f % y Q *.Y.=.`.=.S.Z.Z.Z.I.B.Q , < k 3.9.0.0.8.1.1.<.1.<.",
"<.<.<.2.0.f.9.Y h > , Q D.`.A.S.S.A.A.S.Y.F.=.o.y + d L 9.z.w.w.z.w.w.w.q.w.w.9.q.9.L f + r ^ b.=.S.S.=.=.S.S.=.`.*.Q , X z ' 9.f.f.<.1.1.>.1.;.",
"2.<.:.2.0.g.9.' h , , Q D.`.`.G.S.`.Y.Y.R.T.M.[ y % 0 L 9.z.w.w.w.w.w.w.q.q.q.w.w.9.I f + r [ M.].`.Y.Y.S.`.S.`.`.`.Q > X h ' i.f.f.1.>.>.,.>.;.",
"<.2.<.:.e.f.e.5.h , X [ `.@X{.].].].].].|.'.T.&.p . 0 I 9.c.h.w.w.w.w.w.w.w.w.v.j.9.I f . n b.G.}.}.}.}.].].|.{.}.`.{ > X h ' i.f.f.1.>.,.>.,.>.",
"<.<.<.2.f.h.h.5.l X X $.OX&X%X#X X X.X.X=X#X`.m.M   4 I q.c.z.z.x.w.w.w.x.w.w.v.x.9.I f . M n.[..X$X$X.X.X#X$X&X$X{.$., + z ] 9.z.g.8.>.1.1.,.1.",
"2.1.,.,.e.h.k.e.v X X $.{.&X#X|. X X X.X.X X!.m.p   0 J e.c.z.h.w.w.w.x.w.j.w.w.x.w./ l . M b.`.}..X.X X X X#X%X&XXXo.> + h ' i.z.f.2.,.,.1.1.;.",
"2.1.>.2.8.f.f.X.h X X [ (.OX}.].'.'.'.{.{.!.T.&.i . w ' e.k.h.f.x.z.w.w.j.w.9.j.v.9./ r . n b.F.].}.].].].].{.oXOX(.[ > + l 4.i.z.g.2.,.1.,.1.1.",
"<.<.<.2.e.f.i.e.b + + Q V.Q.A.A.A.A.=.Y.T.A.=.+.t X 7 U i.l.h.h.x.x.x.w.j.w.w.j.j.j./ f + r [ =.Z.S.A.S.A.S.A.F.Q.B.~ < + h 6.i.z.g.8.,.1.,.1.,.",
"<.:.<.2.f.k.i.Y N % , u o.*.O. . . .+. . . .| Z 8 + 6 U i.l.k.k.v.v.v.w.9.9.j.j.j.9./ l , 2 T ^  . . . . . .| O.&.$.M > + l 6.h.g.g.8.;.7.1.,.,.",
":.:.:.0.f.h.e.' v @ 3 u ~ O.^ | | ^ ^ | | ^ ~ p 2 < 7 C 6.i.i.e.9.9.9.9.9.9.n.9.j.6./ f 3 6 T Q | | | | | | ^ ^ $.[ m < + v 6.i.g.f.2.,.,.,.,.1.",
":.:.1.0.f.e.e.U v 5 5 M [ &.@.@.&.&.O.O.O.O.~ E e < w B ' ] ] 4.4.6.6.6.6.9.6.9.6./ R f 3 e R [ O.O.O.O.@.O.o.&.u.%.M @ @ v ' e.g.f.2.>.,.,.1.,.",
":.:.:.8.q.f.e.' k < 3 C [ &.$.O.$.$.$.$.&.o.[ E 8 + 9 b V B B V B B B J R / / R G z l 0 , r R [ O.@.O.@.O.$.%.&.u.#.n % + N ' i.f.g.1.>.>.1.,.-.",
":.:.:.7.e.h.e.6.z % 3 M #.&.$.o.[ $.{ $.O.o.o.W 8 . 5 5 q q q 9 0 0 5 9 4 4 5 4 0 0 3 3 , 6 T [ O.&.O.O.o.o.%.%.u.#.m @ O h 4.h.z.f.8.,.,.,.>.,.",
"1.7.;.7.0.w.h.6.v $ * M %.u.%.%.$.$.p.$.$.%.o.W t o 5 5 5 < ; 3 1 1 @ < > < o + < 3 5 3 < w E ..@.@.+.+.%.&.&.y.y.%.M * . v ' h.z.f.1.>.;.,.1.;.",
":.7.;.7.9.9.h.6.v + * C #.u.%.%.u.n.n.a.$.#.o.! t 1 0 0 0 w w f w 8 w w r r w 8 r 0 l w 8 m _ X.o.%.@.&.d.d.y.%.y.X.V 5 O v 6.h.g.g.2.,.1.1.;.,.",
"7.7.;.7.w.w.j.6.v $ - V X.d.y.N.P.~.P.J.t.o.#.X.( A ( ( ( U ( ( W W W ( ) W W ) ( / ( ( W ( X.#.+.+.V.E./.E.d.y.y.r.V 5 @ v 6.h.z.g.8.,.1.,.,.,.",
":.:.:.7.j.v.j.4.v $ : V X.y.y.K.+X*X+X~.u.` %.y.y.r.r.i.r.p.r.r.y.y.r.r.#.%.t.p.p.p.p.p.r.%.y.#...s.~.)._.).K.y.y.] V 9 * N 6.h.c.g.0.1.1.1.1.,.",
":.:.;.7.f.k.e.Y v & ; Z X.y.%.K._.*X_.~.u...%.t.u.p.p.p.a.a.u.p.u.u.y.u.u.y.u.u.u.p.a.u.u.y.%.o...s.W.).+X).K.y.y.X.V 9 ; N ' 9.g.f.8.1.7.,.3.1.",
"3.;.;.3.,.5.5.U c # # m ..y.#.s.E./.~.K.u.o.#.%.%.%.] #.r.$.#.{ #.#.#.%.#.#.#.#.#.#.#.X.o.o.+.+.o.+.V.W./.~.d.r.r.] V q * g J 3.8.8.8.,.,.,.1.,.",
":.;.,.,.J J J S s # # m ` #.` %.d.d.d.s.u.%.$.#.] ] ` [ [ [ { [ ] ] ] ] ....~ ` ....` } } ..| o.+.+.&.s.V.N.r.] X.] V q : 9 z G K I ;.7.,.,.,.1.",
"1.7.,.P S : q q : ; ; c W ) ~ ~ ..X.] ..%.&.$.#.` ) ] ` _ ) ) ` _ ` _ _ _ _ ! ` ..` ..` ~ ^ o.+.+.+.} } ..` ~ ( U A c q 9 : d f f S P :.,.,.,.1.",
"1.1.;.P j = * = ; t ; m W _ Q Q ! ! A ! %.&.%.[ W A ( ( W W ) ) ( ( ( ( W W ( ( ) ) ! W E ! ..o.+.+.~ E E E W W _ ! b 5 5 5 4 4 - j K 3.3.:.;.:.",
"8.1.1.P S g g g : ; ; m ` [ ` ~ } ! ..+.%.&.[ _ Z b M M B T R ( ( J J C J W C B U C V b y M ! o.+.+.o...~ ~ ` [ %.] m 5 5 9 f k j x L ;.;.;.7.7.",
"1.:.,.;.D v v v 9 ; ; V { t.#.[ o...#.+.$.o.` ! b 7 w h V B C B J F B J J C J B B C l w 1 t A ` +.%.@.+.o.o.%.#.y.#.M 3 3 0 z N x K I ;.;.:.7.7.",
"1.1.,.;.P H H v d ; ; V { b.$.$.o.%.+.%.o.o.[ W y 1 5 w C J V B B J H F V J B B B B h 5 < t W ` ..+.+.@.%.o.%.%.u.X.m < 5 9 h N F L ;.7.;.3.:.3.",
"-.1.1.,.P K H v d ; * C { b.b.O.&.%.%.&.%.o.` W 8 o ; h V J B B F F F B F F B G G B h 9 % w W ` o.o.+.@.&.o.%.&.s.%.M < 1 9 b B L K ;.7.;.;.;.7.",
"<.1.1.,.P F F v 9 5 9 M #.u.t.*.%.o.&.&.&.O.[ T t @ ; w N F F G F F F F F G F G G B k 0 , 0 R { %.&.@.@.o.%.O.&.u.#.T 1 1 0 l B z K ;.L ;.;.L ;.",
"<.<.1.,.P S F v d : * C { b.O.$.$.o.&.&.&.&.[ W 8 * 9 h N B H H F F F F G G K L L L z 4 % 0 ( { %.&.+.+.@.@.%.&.u.#.M 1 6 0 l F L K K K K K ;.;.",
"<.1.1.,.P K H S g : ; M 6.b.$.$.&.&.@.@.*.&.` W w @ 5 c B H L H F F F F L L I L L z z f % l R { %.&.@.&.@.&.$.%.&.#.M < < w l G ;.K z K K K K ;.",
">.1.1.,.P F H S g : * M { $.$.O.&.+.O.@.&.o.[ W w @ 9 h z F L K S F K G G L G G F z k f % f R { %.&.%.o.@.&.o.%.$.#.M 3 3 0 l G L -.S K K K L P ",
"1.1.1.-.D j v j 9 9 5 b { { { ^ o.o.o.o.o.[ ~ M 8 @ 9 h z z z z k k z k z k z N z z f f 3 w R ) [ o...^ ` o.o.o.%.[ n 3 3 0 l z z S K L -.-.;.P ",
"1.1.1.-.S s s d : 9 3 b ) { Q Q ~ ~ ~ ~ ~ ^ Q M w 5 4 0 f 4 4 d f g f f q q f f f f f 9 3 0 M W } } ~ Q ~ ~ ~ ` ] ) n 5 6 4 4 0 a x K ;.;.;.P ;.",
"1.1.<.P j : s d 9 9 3 b Q [ ~ ~ E E ~ E ~ E E i 5 . + % 3 4 3 3 * * * * % % = % % % - % . 5 M ) ~ ~ Q E ! Q Q ! ] _ b 5 5 4 4 4 a x L 3.;.3.7.;.",
"1.1.1.P j a d : 9 9 ; i A ..! ! _ ! ! ! Z ! A p t # # 5 6 0 4 4 5 5 5 5 5 5 5 5 5 5 5 3 < w M W Q ~ ~ ! W ~ W ( _ W b 5 5 4 4 4 a s >.,.1.,.3.;.",
"1.1.1.P j - d 9 : ; ; m _ } W ~ } X.+.} } Z ! Z M m C C B / R R C C C R M C R C R C C C C T T E E ~ ~ o.#.#.` ( ) ) b 7 q 9 9 4 a v P ,.7.,.,.,.",
":.:.1.P j : : 9 q ; 7 c W _ ~ ~ +.s.y.X.! ! ! } ) _ ] ] ] ] ] ] ] ) [ { ` ` { ] ] ` ` ` ` ` ! ! ~ ~ o.%.y.y.] _ _ ( c 9 q 9 d d - j P ,.,.,.,.,.",
"7.:.7.I j : d 9 ; : ; m W ` ! ..d.d.d.%.} E } } X.#.%.r.$.$.6.*.r.#.6.#.#.#.#.#.t.{ #.#.%.%.o.~ ! ~ o.&.d.a.r._ ] U c 5 9 4 9 9 - v P ,.,.,.,.,.",
";.3.;.-.k 4 : 9 ; ; ; t W ` ! X.d.d.d.y...E ! ` r.r.p.p.t.$.b.6.r.$.t.$.$.$.$.$.$.t.$.$.&.o.o.` Q ~ +.u.N.a.r._ X.A t ; 9 9 9 : a j D <.Y ,.,.,.",
"3.:.7.-.j - 9 9 ; 7 ; i W _ ! ..y.y.y.X.! ! ! ` ] %.#.#.{ $.{ { { { #.#.#.[ #.[ { { { #.o.o.~ ~ E ~ ..+.u.&.X.] X.A c # ; : 9 : a j D 1.>.5.,.>.",
";.3.:.L k - 9 9 q ; 7 c A ` ..} _ X.} } ! ! ! ` ] ] _ ` { ` Q Q ` ` ` ` ) ` ` Q ) [ { { [ ~ E E E E } } ] ` ` _ _ A c ; 7 ; ; : - j I >.>.>.,.,.",
"7.;.3.L k 4 9 9 ; ; 5 t A _ _ _ _ _ U A ! ) ! } ! ) ~ _ [ ` [ Q ` ` ` ` ^ ` Q [ ) ) [ ) ~ ~ ~ E ! ! ~ ! ! _ _ _ X.U m ; ; ; : : - v P Y ,.,.>.>.",
"3.,.,.I v : : ; ; q ; t Z _ _ _ } A _ _ _ _ } _ ( W W ~ ) { ) Q ) ` ` ` ` ` Q ) ) ` ` ) ) ~ ~ ~ ! ~ ~ ! W W ! ) } A t ; ; ; ; ; a j D >.>.>.5.>.",
",.,.,.I v : : q ; ; # t Z A A Z A A A A Z Z A Z M M m M T T T T C R R T C C T T C R R R T T T E E Z E E Z A A A U A t ; t ; q : - j P >.>.>.,.,.",
",.,.,.I v = : : ; ; ; t m Z Z Z Z Z Z Z Z i i i t 8 8 w e e 8 e 0 w w w w r w r r w r 0 w r u u i i M Z M M M M Z m t # t q q : - j P ,.>.5.>.>.",
",.,.<.D v - : : q ; q t m p Z i m m M m i i t t 7 5 7 6 1 5 6 6 6 4 5 5 5 5 5 5 5 5 3 6 5 6 e y y i i m m m y M Z m t ; ; q q : - j P >.Y >.>.>.",
",.>.,.U v - - : : : 9 w m M y i y y i m y u y y 7 1 7 5 7 6 5 6 5 5 5 5 5 5 5 5 5 5 4 5 5 6 r y i i M i y m y b m m w 0 : q ; : - j D >.>.Y 5.,.",
"Y ,.>.P j - : : : ; 9 w b m n y u y i y u y u y 7 # 5 5 5 5 0 5 5 5 5 7 5 5 9 5 9 4 5 4 5 9 r b i i m y y b b m m b 7 5 t : 9 d a j P >.>.>.>.>.",
">.' Y P v - s : q q 9 f m n y n i M i y u y y e 7 ; 5 9 q 5 9 5 5 5 9 9 9 9 5 q d 0 d 5 9 0 y b M b i y b M m m M b 0 5 0 4 d d - j U ,.Y ,.1.>.",
">.>.>.P v : q d : : 0 f b n u u M M i u i u y 8 5 5 5 5 9 9 9 9 ; q 5 q 9 9 9 d d f d 9 5 0 l b b m m m m m M C m b 0 0 9 d 4 s - v P >.Y ,.>.>.",
">._ >.A j q s s q q q w b M n u M n M M Z i y 8 8 ; 5 q q 9 9 9 9 9 q 9 q : 9 9 d g d d 9 9 w b m b m m M M C M M m t q f 9 s 4 a j P ,.,.,.,.,.",
">.>.>.P j q s s s q 9 g l b l y y y y u c t t 2 7 5 : q 9 9 9 9 : 9 ; q : q : d d d d 4 9 q w c l b t c b b b b c c q q 9 s 9 s a j H ,.,.,.,.,.",
">.>.' P j s s q s s q d 0 f q q q q 0 0 c q q q : g : s : d 9 d d : : 9 s s 9 9 s 9 d : : 9 q q q f d f q d d g c q : : 9 9 d s a x K ,.Y 2.8.,.",
"5.>.>.P j ; s s : : : : q 4 9 * : : : : : : s : s : : q q d : : 9 s s s : d d s : 9 : : : : s s : : : : : : : : s : : - 4 : - 9 s x K ,.,.,.2.1.",
"5.5.<.P j s s ; = = ; : : : ; ; * : = ; ; : - - : : : : : : : : : : - : : : : : - 9 ; : : : : : ; = - : - ; : : ; : : - - - - - s j D P Y >.<.,.",
"<.<.5.P D j j j j S v v v v v c h k v v j v c v v g k j v j k g v v j k j v S v k k j k k v v v v v v v k k k k v v v v c c v v j D P Y >.P ,.,.",
">.>.5.Y P P P Y U U U U J J U U J U J J H H J J J J I U L J J J J P J P J P I I I I I J J J J U P U U J P U J J U J J J H P U J D P >.8.,.>.>.2.",
"Y >.>.>.Y Y >.>.Y 5.,.5.Y U Y Y ' U Y Y Y Y Y Y Y Y ' ' ,.Y ,.Y Y ,.Y Y Y Y Y Y Y Y Y Y Y Y Y Y Y Y Y ' Y Y ' Y Y Y Y Y Y Y Y Y Y >.5.8.5.5.,.>."
};
