/* XPM */
static char *skull_v2_31691645125[] = {
/* columns rows colors chars-per-pixel */
"72 72 229 2 ",
"   c None",
".  c #010000",
"X  c #0B0000",
"o  c #130000",
"O  c #1B0000",
"+  c #070016",
"@  c #1B071B",
"#  c #1B0719",
"$  c #220000",
"%  c #230B0C",
"&  c #270305",
"*  c #320000",
"=  c #370006",
"-  c #240E13",
";  c #2B0014",
":  c #37001E",
">  c #251116",
",  c #25141B",
"<  c #28161E",
"1  c #29150E",
"2  c #120A2A",
"3  c #261A22",
"4  c #291E29",
"5  c #281924",
"6  c #35102C",
"7  c #2A222D",
"8  c #27252F",
"9  c #32272A",
"0  c #2B2531",
"q  c #2A2935",
"w  c #2D2C3A",
"e  c #222839",
"r  c #302A39",
"t  c #333239",
"y  c #373339",
"u  c #2F303F",
"i  c #41193A",
"p  c #443C36",
"a  c #1B3853",
"s  c #2D3342",
"d  c #2B384B",
"f  c #323344",
"g  c #343B4C",
"h  c #373747",
"j  c #2A3D56",
"k  c #363E51",
"l  c #3A3C51",
"z  c #2A2B44",
"x  c #451F41",
"c  c #452848",
"v  c #4A3D5C",
"b  c #1D415C",
"n  c #2C4358",
"m  c #334254",
"M  c #33455A",
"N  c #39465B",
"B  c #344A5D",
"V  c #39495E",
"C  c #3A4255",
"Z  c #3D424B",
"A  c #344D62",
"S  c #3D4C63",
"D  c #354B67",
"F  c #355165",
"G  c #395166",
"H  c #35536A",
"J  c #3B556C",
"K  c #39596F",
"L  c #365A74",
"P  c #3B5C74",
"I  c #345D7A",
"U  c #3D5774",
"Y  c #2D4E68",
"T  c #3E627C",
"R  c #37607C",
"E  c #44454A",
"W  c #464749",
"Q  c #4B525A",
"!  c #43485A",
"~  c #484865",
"^  c #514567",
"/  c #42536C",
"(  c #4C5767",
")  c #425770",
"_  c #445B75",
"`  c #465E79",
"'  c #4A5E7A",
"]  c #485975",
"[  c #535678",
"{  c #535E6B",
"}  c #556069",
"|  c #43627C",
" . c #4A637C",
".. c #586A76",
"X. c #5F737F",
"o. c #60727D",
"O. c #3B6683",
"+. c #3C6C8A",
"@. c #3B6784",
"#. c #3E7393",
"$. c #3D708E",
"%. c #3A7FA6",
"&. c #585E82",
"*. c #4A6583",
"=. c #436A85",
"-. c #456D8A",
";. c #4D6C8B",
":. c #466683",
">. c #556487",
",. c #45718E",
"<. c #49728E",
"1. c #447492",
"2. c #4C7493",
"3. c #497997",
"4. c #457B9C",
"5. c #4A7C9B",
"6. c #527394",
"7. c #537A9C",
"8. c #5B769A",
"9. c #596E92",
"0. c #617583",
"q. c #6B7E89",
"w. c #6B7C85",
"e. c #447EA0",
"r. c #4B7FA0",
"t. c #577EA1",
"y. c #5A7EA2",
"u. c #3E82A8",
"i. c #4C809F",
"p. c #59819B",
"a. c #6E828C",
"s. c #6D8694",
"d. c #758B97",
"f. c #4681A4",
"g. c #4D83A4",
"h. c #4B86A9",
"j. c #4D89AB",
"k. c #4486AA",
"l. c #5483A4",
"z. c #5981A5",
"x. c #5985A9",
"c. c #538BAD",
"v. c #5B8BAD",
"b. c #5386A9",
"n. c #4C8DB3",
"m. c #458AB1",
"M. c #548EB1",
"N. c #5C8DB2",
"B. c #4E95BD",
"V. c #4D90B7",
"C. c #5592B5",
"Z. c #5595BA",
"A. c #5C96BC",
"S. c #5A99BE",
"D. c #5A95B9",
"F. c #5C90AE",
"G. c #7E9BAB",
"H. c #7693A3",
"J. c #608EB5",
"K. c #6497B9",
"L. c #628AAA",
"P. c #76A1BA",
"I. c #4D9AC4",
"U. c #4897C2",
"Y. c #539CC4",
"T. c #5B9CC2",
"R. c #509EC9",
"E. c #619CC4",
"W. c #5BA0C7",
"Q. c #5DA3CB",
"!. c #52A2CD",
"~. c #5EA7D0",
"^. c #5DAAD4",
"/. c #5FAED9",
"(. c #62A4CC",
"). c #6AA6C9",
"_. c #76ACCB",
"`. c #62ABD4",
"'. c #63AFD9",
"]. c #69ABD2",
"[. c #65B2DC",
"{. c #6BB3DB",
"}. c #72B5DC",
"|. c #7AB6D9",
" X c #67B5E1",
".X c #6BB7E2",
"XX c #73BBE3",
"oX c #7CBDE3",
"OX c #70BBE6",
"+X c #79C2EB",
"@X c #829DAB",
"#X c #86A5B6",
"$X c #8CABBB",
"%X c #89A8B8",
"&X c #90AEBD",
"*X c #83A0AF",
"=X c #8BAEC1",
"-X c #87B4CD",
";X c #95BACC",
":X c #92B4C6",
">X c #84BCDB",
",X c #8ABAD5",
"<X c #96BED3",
"1X c #83BFE1",
"2X c #8DC1DE",
"3X c #9CC2D6",
"4X c #9DC4D9",
"5X c #92C3DE",
"6X c #A2C7D9",
"7X c #A3CADC",
"8X c #A0C5D7",
"9X c #8CC4E4",
"0X c #87C5E8",
"qX c #93C6E3",
"wX c #9ACBE5",
"eX c #93CBEB",
"rX c #9BCEEA",
"tX c #96C8E4",
"yX c #9ED0EB",
"uX c #A2CDE4",
"iX c #A4CFE6",
"pX c #A6D1E6",
"aX c #A3D2EB",
"sX c #ABD5EA",
"dX c #ADD9EE",
"fX c #A8D0E4",
"gX c #B1DAEE",
"hX c #B0D7EA",
"jX c #A9D9F2",
/* pixels */
"                                                                                                                                                ",
"                                                                                                                                                ",
"                                                                                                                                                ",
"                                                                                                                                                ",
"                                                                                                                                                ",
"                                              o o o o                                                                                           ",
"                                            O $ $ $ $                                                                                           ",
"                                            m m M m m d                                                                                         ",
"                                          A T | <.=.T F                                                                                         ",
"                                      O q J ,.g.M.j.3.P 8 . . . X X o o o o o                                                                   ",
"                                    X O q P 5.Z.W.T.b.=.s o . X o O O o O o O O                                                                 ",
"                                    o O w T c.Q.`.`.S.3.G 3 O $ 7 q q w w w q q q                                                               ",
"                                    o O t =.C.(.[.[.(.c.<.P G J P P P R O.| I H A                                                               ",
"                                    o o t =.C.`.[.[.`.T.c.i.5.4.4.i.e.f.h.k.#.+.L j O     . X                                                   ",
"                                    X O w =.c.~.[. X[.`.S.S.Z.Z.B.B.B.I.Y.Y.n.f.+.M O . . X o o o                                               ",
"                                    o O w | b.T.`.[.[.`.`.`.~.^.^.~.Q.^././.Q.C.3.H 3 o o $ $ $ $                                               ",
"                                    X O q J 1.c.W.~.`.'.'.[.[.{.{.{.}.}.XX.X}.(.v.<.F s s m B m m m                                             ",
"                                        q A | 3.g.Z.Y.Q.^.[..XXXoX2X0X0X0X0X2X_.P.c.1.@.+.1.3.-.T P B                                           ",
"                    o X o                   B G T ,.j.B.!./.{.|.0X5XtXwXrXwXqX2X].K.n.u.m.V.Z.j.5.=.G q O                                       ",
"                  o O O O                   $ $ 8 K #.m.I./.}.0XqXwXpXpXaXaXwX5X>X].Q.I.R.Q.~.W.M.3.K q O o                                     ",
"                  q q q 8 q                 o o $ B ,.n.Q.{.oX9XwXpXsXhXhXsXfX4X2X|.{.`.[.[.[./.T.g.| w O o                                     ",
"                B H L P H A                 3 e M | l.K.].|.9XwXpXsXgXhXgXgXsXpXwX9XoXXXOXOXOX[.W.j.| 7 o .                                     ",
"              j L +.4.4.#.I n o           s Y I ,.x.)._.>XtXrXaXsXdXgXgXgXgXsXjXaXrXeX9X+X+XOX[.W.g.P $ X .                                     ",
"          O $ m O.f.V.B.k.#.B O . . . . o n O.u.M.).|.2XwXaXdXdXdXdXgXgXdXdXdXdXdXjXaXyXeX0XOX[.Y.f.K $ . .                                     ",
"          o $ M <.C.!.~.T.5.L < o . . o 3 H #.V.Q.{.9X9XrXsXsXsXsXsXpXsXsXsXsXsXhXhXfXuXtX0X}.^.B.i.P < o .                                     ",
"        . X $ G p.).{.}.].K.2.G s 5 5 f D ,.m.Y./.XX>X5X4X7X6X6X4X3X3X3X3X3X3X4X8X6X6X3X,X|.).W.V.i.@.A d q                                     ",
"        . . O ( L._.>X0X1X).F.1.O.I I @.1.h.I.^.[.XX|.-X=X$X$X$X%X%X#X#X#X#X%X%X&X&X$X#XG.G.M.j.u.f.i.3.-.| K                                   ",
"        . . o ( H.-XtXyXtX|.).n.%.%.u.k.m.Z.Q.'. X{.).K.d.a.w.q.a.w.a.w.w.w.a.a.a.a.q.w.0.;.| @.1.h.C.Z.C.g.=.C $                               ",
"        . . o ( H.:X7XsXyX9X}.T.U.U.I.R.Y.~.'.[.[.`.A.7. .W p p W W W W E E E E ! W W E y 9 q m T j.T.~.W.C.,.M O o                             ",
"          . o ( d.$X8XfXrXqX|.{././.'.'.'.'.'.'.`.T.h.@.m o . X o @ @ @ @ @ @ @ @ @ @ # O o O 8 T i.T.`.~.S.3.M $ o o                           ",
"        . . o Q a.@X&X3X3X,X9X|.XXoXoX0XoX}.].).S.j.1.L d + + 2 a a b b b b b b b b b a s 3 ; t ) 3.C.T.S.c.,.C $ O O                           ",
"        . . O E ..q.H.*X=X-X,X9X9XeXeXeXqX>X_.K.i.+.I H n M Y L +.#.#.#.#.#.#.#.#.#.#.+.O.L G ! | -.i.i.5.,.P g $ O O                           ",
"        o o % y E Q } 0.H.P.;XtXyXjXjXjXwX<XP.8.` b j D ` :.2.t.b.Z.Z.Z.Z.Z.Z.Z.T.Z.Z.M.b.r.2.*.` ` U U F M d 0 1 $ $                           ",
"        - - > , O . o Z 0.G.;X7XjXdXdXdXpX;X@XX.f + z D ;.t.N.A.W.Q.`.`.`.^.~.`.`.`.(.Q.T.N.y.8.*.) M q & $ % , , > >                           ",
"          4 < O . . . o ..G.;XfXdXdXsXfX4X$Xd.} 9 @ j *.t.N.E.E.`.'.[.[.[.[.[.[.[.[.[.`.(.E.E.y.6.:.V 7 $ $ $ - , ,                             ",
"            < O . . . o ..*X3XsXgXsX6X;X%XG.w.} l M O.3.N.T.(.].'.[.[..X[.[.[.[. X[.[.'.].(.E.A.b.6.` S f r 0 4 - $ $                           ",
"                . . . < 0.$XuXdXgX7X:XG.s.0... .*.:.r.N.T.(.`.'.'.[.[.[..X[.[.[.[.'.'.'.`.`.`.E.A.v.7.;._ S l r % O O                           ",
"                  . . t q.=X7XdXsX3XG.o.! C G *.6.t.N.T.(.`.'.'.'.'.[.[.[.[.[.[.'.'.`.`.'.'.'.`.T.A.N.t.;.` S f $ O                             ",
"                  . . t 0.#X3XuX4X&Xa.Z . + j *.t.N.A.T.].`.'.'.`.`.`.`.(.`.`.`.`.`.`.`.`.'.].`.(.T.N.y.6.' S f $ O O                           ",
"                    . t ..H.$X;X;X@X..1 . + j *.y.N.J.E.E.(.E.E.E.T.S.S.S.S.Z.S.E.`.`.`.`.(.(.E.T.N.y.7.;.] S s $ O O                           ",
"                      t } s.H.*XG.a.( $ . 2 Y :.t.v.J.J.J.J.J.J.J.J.L.x.t.3.r.c.Z.Q.`.`.(.E.E.J.x.8.;.:.) V l q % $                             ",
"                          ....X.X.} p & O d U ;.y.z.y.y.8.8.8.8.8.8.9.;.` / P 1.n.W.`.`.(.J.y.8.>. ./ S g f q 4 - $                             ",
"                          t t t y 9 & O 4 k ` 2.t.y.8.9.>.[ &.&.&.&.[ ~ y 5 u R g.T.`.(.E.L.9.&.^ v h 0 , % > < , > >                           ",
"                            . . . . . O 0 N :.2.t.y.9.>.[ ^ ^ ^ ^ ^ v r & O O F 4.S.`.`.E.y.&.v x 6 ; $ o O $ - , 3 3                           ",
"                              . . . . O 0 S *.6.l.y.9.' ~ c x c c c i * $ o O B 5.S.~.`.D.7.( i = * $ O o O $ % , 3                             ",
"                                  . X O 0 S ;.7.z.y.6._ l 6 * = : i * & o . o A 4.W.`.`.D.;.! * & $ O O O O $ - , 3 3                           ",
"                                    o O 7 S =.8.y.y.2.) f & $ $ * & $ O o X O J i.W.`.(.C.,.m $ O O O $ O $ & - , <                             ",
"                                    O O 4 N :.6.7.7.;./ f - O % 3 8 7 - $ $ s | g.W.`.(.D.<.B , O O < 7 4 4 3 < , , ,                           ",
"                                      O 7 k J *.;.;.*.) V k n B F K L H F F T 3.C.W.`.`.T.g.=.H M M V V k g w 7 > $ $                           ",
"                                        7 g S / | *.*. .` | =.-.4.i.i.i.3.3.5.c.S.`.[.`.Q.Z.j.3.1.<.=.:.) / l r % $ O                           ",
"                                            f f C / ` *.;.6.l.v.C.Z.S.S.Z.Z.S.T.`.`.[.'.`.~.T.Y.C.v.z.7.;.] ~ f & O O                           ",
"                                            O O < g / *.6.l.N.E.W.~.`.`.`.`.`.`.`.`.'.`.'.[.`.`.W.S.N.z.6.*.G f $ O O                           ",
"                                              . o 0 N _ ;.y.N.T.(.`.'.[.[.[.[.`.`.(.W.Q.~.`.`.`.(.E.N.l.;.' V f $ O                             ",
"                                                o 3 k S ` 6.x.N.E.(.].'.[. X[.'.W.S.M.C.T.T.(.(.E.D.x.6.| / N s $                               ",
"                                                    u g V ` 2.t.N.A.(.(.{. X[.^.S.g.<.<.r.N.K.E.N.x.6.` V k h                                   ",
"                                                      , 7 k _ ;.7.x.A.).'.{.'.Q.c.=.F V ` 6.x.v.z.6.` m 7 ,                                     ",
"                                                      o O < l / *.6.x.A.(.`.Q.Z.3.F O $ C  .6.7.6.| m < o o                                     ",
"                                                        . O w N ] *.7.v.D.T.Z.b.,.m O O r J *.;. .S f $ X                                       ",
"                                                          $ q g V / *.6.l.g.i.<.T d o O 6 N / _ S V w O                                         ",
"                                                              f h C S ) | | P J F       8 h k C k h                                             ",
"                                                              3 4 7 7 r w w q q           4 4 7 4 7                                             ",
"                                                                O O $ O O O o O           $ O O O                                               ",
"                                                                  O o o o o o               O o o                                               ",
"                                                                                                                                                ",
"                                                                                                                                                ",
"                                                                                                                                                ",
"                                                                                                                                                ",
"                                                                                                                                                ",
"                                                                                                                                                ",
"                                                                                                                                                ",
"                                                                                                                                                ",
"                                                                                                                                                "
};
