/* XPM */
static char *last_up_wall1691637143[] = {
/* columns rows colors chars-per-pixel */
"72 72 248 2 ",
"   c #00001B",
".  c #000029",
"X  c #000035",
"o  c #00003B",
"O  c #070A39",
"+  c #130C3E",
"@  c #101032",
"#  c #18193C",
"$  c #291D34",
"%  c #31242C",
"&  c #2B253A",
"*  c #332638",
"=  c #342B3C",
"-  c #3B323D",
";  c #000143",
":  c #070947",
">  c #0B094E",
",  c #0D1348",
"<  c #171646",
"1  c #1B1645",
"2  c #151943",
"3  c #1A1945",
"4  c #13154B",
"5  c #1A1A4A",
"6  c #0B1455",
"7  c #151857",
"8  c #1B2259",
"9  c #2B2747",
"0  c #262A4B",
"q  c #2D2C49",
"w  c #322B42",
"e  c #382C47",
"r  c #3B3344",
"t  c #36324B",
"y  c #3A334B",
"u  c #262B55",
"i  c #392F51",
"p  c #2C315C",
"a  c #363855",
"s  c #353A5A",
"d  c #04087C",
"f  c #12007F",
"g  c #01167B",
"h  c #0E2E6C",
"j  c #1B2463",
"k  c #19266A",
"l  c #072279",
"z  c #01237C",
"x  c #172C77",
"c  c #193377",
"v  c #1D327B",
"b  c #282E64",
"n  c #2B3368",
"m  c #2E366D",
"M  c #243275",
"N  c #24347B",
"B  c #2A3879",
"V  c #323D75",
"C  c #443A45",
"Z  c #463F4C",
"A  c #493E4A",
"S  c #483E50",
"D  c #3D465C",
"F  c #2D406E",
"G  c #3C4366",
"H  c #3A467A",
"J  c #47404C",
"K  c #4C434D",
"L  c #474558",
"P  c #564C55",
"I  c #60585B",
"U  c #434463",
"Y  c #464C68",
"T  c #4A4E6C",
"R  c #4B5466",
"E  c #4C546B",
"W  c #57556F",
"Q  c #5E5A6D",
"!  c #444C74",
"~  c #464D79",
"^  c #4E5371",
"/  c #4B547B",
"(  c #515373",
")  c #595B77",
"_  c #695D64",
"`  c #645B68",
"'  c #635E74",
"]  c #5B617D",
"[  c #6C6264",
"{  c #6B636B",
"}  c #746966",
"|  c #766C6C",
" . c #7B6D6D",
".. c #777069",
"X. c #7C716C",
"o. c #676378",
"O. c #766C74",
"+. c #7B6E73",
"@. c #7A6E77",
"#. c #746E7B",
"$. c #7B7174",
"%. c #777278",
"&. c #7B727B",
"*. c #81756D",
"=. c #827474",
"-. c #847877",
";. c #857B7B",
":. c #8A7D7D",
">. c #898177",
",. c #8C827D",
"<. c #91847E",
"1. c #93897F",
"2. c #000E82",
"3. c #021983",
"4. c #042482",
"5. c #172C83",
"6. c #0C378B",
"7. c #1C3484",
"8. c #133A8C",
"9. c #1A3989",
"0. c #0F3B92",
"q. c #243583",
"w. c #263984",
"e. c #354483",
"r. c #384787",
"t. c #344B94",
"y. c #35529C",
"u. c #2F55A5",
"i. c #3357A4",
"p. c #3259AB",
"a. c #465088",
"s. c #4B5689",
"d. c #535A86",
"f. c #495993",
"g. c #5A638B",
"h. c #4B619C",
"j. c #5C6594",
"k. c #596699",
"l. c #59669A",
"z. c #666A89",
"x. c #706F88",
"c. c #757284",
"v. c #7B7383",
"b. c #78758B",
"n. c #666B94",
"m. c #636C9B",
"M. c #6A7399",
"N. c #757897",
"B. c #7A7A94",
"V. c #7A7C9B",
"C. c #4A5FA1",
"Z. c #5669A5",
"A. c #4B74BC",
"S. c #5170B1",
"D. c #626EA3",
"F. c #6472A3",
"G. c #6B75A4",
"H. c #6877A9",
"J. c #6B79AA",
"K. c #757CA6",
"L. c #647AB5",
"P. c #747FB3",
"I. c #4778C5",
"U. c #567CC4",
"Y. c #877C83",
"T. c #817D98",
"R. c #807FA2",
"E. c #7D819B",
"W. c #5B84BE",
"Q. c #7C82A4",
"!. c #7783AC",
"~. c #7B84AB",
"^. c #6884BB",
"/. c #7682B3",
"(. c #7B84B4",
"). c #7885BA",
"_. c #5A8CD1",
"`. c #5E8BD5",
"'. c #5A8CDC",
"]. c #6887C8",
"[. c #6E8ED0",
"{. c #6A95DA",
"}. c #588EE2",
"|. c #5795E5",
" X c #5598EB",
".X c #699BE8",
"XX c #6E9EED",
"oX c #5FA0EF",
"OX c #5CA9FB",
"+X c #6CA2ED",
"@X c #75A3EB",
"#X c #69A5F7",
"$X c #63ADFF",
"%X c #6BABFE",
"&X c #76A8F5",
"*X c #72ABFC",
"=X c #8D8283",
"-X c #8D8588",
";X c #938583",
":X c #948A85",
">X c #9B8D85",
",X c #968688",
"<X c #968D8A",
"1X c #9B8D8B",
"2X c #9B9186",
"3X c #97918A",
"4X c #9C928C",
"5X c #8B8394",
"6X c #878699",
"7X c #8C8B9C",
"8X c #958C93",
"9X c #9A8E93",
"0X c #948D9B",
"qX c #988D9A",
"wX c #9C9293",
"eX c #97939A",
"rX c #9B939B",
"tX c #A1938D",
"yX c #A18E91",
"uX c #A29493",
"iX c #A5999A",
"pX c #B1A69D",
"aX c #8386A3",
"sX c #8488A7",
"dX c #8C8BA3",
"fX c #948EA3",
"gX c #9792A3",
"hX c #8184B0",
"jX c #B2A6A4",
"kX c #B5ABA4",
"lX c #B9ABA4",
"zX c #B3AAAC",
"xX c #B2ACAE",
"cX c #B9ACAA",
"vX c #ABA7B3",
"bX c #C8BCAE",
"nX c #CABEB4",
"mX c #C6BDB9",
"MX c #CABEBB",
"NX c #CBC2B5",
"BX c #CDC3BC",
"VX c #D3C7BA",
"CX c #D2C5BC",
"ZX c #C4BDC4",
"AX c #CDC5C2",
"SX c #CCC6C6",
"DX c #D2C5C3",
"FX c #D3C7C6",
/* pixels */
"r - = C _ @.+.+.Y.1X4X3X4X3XeXwX,X=.*.} *.} =.Y.o.=.' =.=._ =.=._ =.=. ._ =.Y.yXyX9XY.*.} =.Y.yXyX9X=X$.} ....$.X...*.Y.yXyXyX:.=.{ =.{ S * r r ",
"- r = J ` +.+.=.:.1X3X3X3X9X3X3X,X-.*.*.} =.=.o.=.=.=.=.=.=.=._ *.=.=. . .=.Y.yXyX1X:.=.{  .Y.yXuX9X=X$.....X.X.X...*.Y.yXyXyX:.} =.=._ S * r r ",
"- - - C ` +.+.=.:.:X1X3X3X<X9XeX,X=.*.*.=.=.=.Y.=.=._ =._ =.=._  .*. . .=.=.Y.yXyX9X:.X.*.} Y.yXwX3X=X$.......X.X. .*.:.>XyXyX:. . .=._ S * e r ",
"- - - K _ +.+.=.:.1.>X3X<X<X<X4XY.*._ *.=.{ { =.' =.' =.=.=.=.=.=. . . .=.=.yXyXyX<X:.X.} =.-.Y.wX3X=X>.....| X.X. .*.:.>XyX>X:.=. . ._ S w r r ",
"- - - K [ -.;.:.<.1.>X2X3X>X<X1X,X:.*.-.=.@.+.+.Y._ =.=.=._ =.=.=.=._ *. .=.Y.yX4X2X,.X.} *.>.tX4X4X-X-..... .X.*.*.=.1.yXyX>X:.:.=.-.} Z = r C ",
"r r = K O.=X;X;X>X>X2XtX3X1X1X1X>X,X:.,XY.-.+.+.Y.=.' =.=.=.=._ =.=.=.*. .=.Y.yX4X2X>.X...*.>.1.4X4X1.>.....| X.*.*.*.Y.>XyXyX>X;X;X,X+.K & e r ",
"r r * K &.8X1X1X>XtXtX1.>XtX2X>X>X>X>XyX,XY.+.+._ =.=.=._ _ =.=.=._ =.*.*.*.Y.yXtX1.>...} *.1.1.4X3X1.X...| |  .*.*.*.:.>XtXyXyX1XwX9X-.P $ e r ",
"r = $ K =.1X1X1X>X>XtX1.>XtX1X>X>X>XtXyX,X:.O. .=.{ =._ =.=.=.=.=.=.*.*.*.:.:.yX1.1.>.*.} ..>.1.3X2X1.X.} | | $.=._ *.:.tXtX1.tX1XuX1X=.K # = e ",
"- * @ A @.<X<X1X>X>X>X1.>XtX>X>X1.tX1.>X:.:.*. .O.X. .X. .| | | _ =._ =.*.*.:.>X2X1.-...} } *.1.:X>X,.X.}  .| | *._ *.:.>X>X;X>XtX1X1X=.A @ = w ",
"K A - P =XiXiXiXtX>X:X>X>X>X>X>XtX1.tXtX>X:.=.=.$.$.-.-.*.=.=.$.=.=.=.=.:.:.1.tX2X>X>.*.*.*.>.1.2X2X1.*.*.=.=.*.=.=.-.<.>X>X1.tXiXiXiX:.P C A A ",
"_ _ I  .iXcXcXcXiX1X>X4XyX>XtX>X1.tXtXtXyX1.:.:.;X1.<.,.<.;X<.;XY.Y.=.Y.:.Y.tX1.3X2X1.1.<.<.:X>X2X2X>X<.:.<.,.,.=.Y.Y.>X3X>X>XiXbXcXcX9XO.I ` ` ",
"+.=. .Y.jXZXFXMXkX2X1XtXyX>X>XtXtXtX1.tXtX1.>XyX3X3X2X2X>X2X1X>XyXyXyXY.1.tXtX1.3X3X3X1X1X1X>XtX4X2X1X1X>X1X:X3XY.yXyXtX3X3X4XlXMXMXMXjXY.{ O.+.",
"=.=.O.Y.zXAXFXBXkX1X;XyX>X>X>X>X2X1.tX1.3X3X3X3X>X3X:X2X2X2X2X>XyXyX>X>X>X>XtXtX<X>X3X1X1X1X1X1X1X>X>X2XtXtX2X:X:X3X3X3X<X:X3XkXMXCXCXjXY.O.&.%.",
"+.+.[ :.zXAXFXBXjX;X<.>X>X,XY.Y.1.1.1.1.1.1.1.1.:X:X1.1.1.3X:X>X:.yX>X>X>X:.:.:.;X;X:X>X,X;X;X;X:X;X>X>X1.1.2X:X:X-X1.:X,.,.:XpXVXDXDXbX:.{ X.$.",
"+. .[ :.kXBXVXNXkX4X>XyXyXyXiXtX2XtXtX2X3X2XtXiXtXtX4X4XuXtX4X4XyXyXyXtXyXtXtXtX3X4XwXuXuXuXyX1XtXtXtXtXtXiXtXiX3X3X4XuX4X3X4XkXnXCXDXlX:.{ O.$.",
"+.+._ :.zXAXCXNXcXlXpXpXbXlXlXbXlXlXlXkXkXkXlXlXlXkXkXlXcXkXkXpXlXlXlXlXlXlXlXlXkXkXkXcXcXcXcXlXlXlXlXpXlXlXlXkXkXxXkXkXlXlXlXcXCXVXVXzX>.{ O.O.",
"+.+.{ :.zXBXBXNXNXNXNXNXNXNXAXAXMXMXNXNXnXNXNXMXBXNXNXNXNXNXNXmXnXbXbXbXNXNXNXNXNXnXZXZXMXBXMXMXnXnXnXbXnXnXnXnXMXMXMXCXMXCXbXnXVXVXNXjX>.{ O.$.",
"+.+.} :.kXBXCXNXNXVXNXNXVXVXFXFXFXDXCXDXDXCXCXCXVXBXSXBXSXSXSXBXMXVXVXVXNXVXNXBXBXBXFXSXFXSXDXBXMXDXVXMXCXVXCXDXDXDXDXDXCXCXCXMXVXVXBXjX>.o.@.@.",
"@.@.O.Y.zXSXVXVXNXNXNXBXCXSXSXSXSXSXSXAXFXDXDXDXSXSXSXSXSXSXSXSXFXDXCXVXVXVXBXBXBXAXSXSXSXSXAXAXCXFXFXDXFXZXFXFXFXFXDXDXDXCXCXCXBXSXVXkX=X{ &.&.",
"O. .{ :.pXNXNXNXNXbXNXNXNXZXZXZXZXZXZXZXZXMXMXMXBXmXBXxXmXmXmXmXZXMXmXmXNXNXNXNXmXmXSXZXZXSXZXmXMXMXZXMXZXZXZXZXZXZXZXZXnXnXnXnXmXNXNXvXY.{ #.O.",
"I _ P } <XpXpXpXpXlXkXcXzXvXvXvXvXvXvXvXzXzXzXcXzXzXvXvXjXzXxXxXbXcXcXvXzXxXxXkXzXvXxXvXvXvXvXxXcXcXzXxXvXvXvXvXvXcXvXcXcXcXcXkXiXpXpX3X} P Q ` ",
"A A - P { ;.-.-.;XtXtXuXqX0XaXdXaXaXaX7X0X0XrXiXiX0X5X5X6XeXrXrXuXyX0XV.6X6XeXeXeXeXeXdXdX7X7XeXgXiXeX7X7X7XaXdXR.K.fXyXY.jXiXY.>.>.>...P r C J ",
"* * $ - I } [ } -.>X1X5X5XT.V.N.N.K.K.V.T.T.0XqX0X5Xb.N.B.5X7X8X1XT.T.N.E.E.7X7X7X6XE.E.N.E.6X7X0X7X7XE.N.N.V.V.R.T.T.Y.Y.yXY.:.[ [ [ I r & = = ",
"e C % C I ..} } :.1X9X8X6X6XR.K.!.!.(.R.sXdXfXfXgXaXE.E.E.6X7XeXyXfXK.P.!.Q.dXgXdXdXsX!.~.Q.aXdXfXfXdXaXQ.Q.!.Q.R.T.T.T.yXyXyX:.[ [ ..I C & = = ",
"- C * A { -.$.X.=X4XwXqXqXT.R.R.!.!.!.P.hXdXfXfXdXR.R.K.E.Q.E.eXqXfXR.P.P.~.sXfXdXdXhX~.!.P.aXaX7XdXdXQ.Q.V.K.R.R.R.T.T.yXyXyXY.| | %.[ J = r r ",
"C * * S | =X:.:.;X9X9XqXT.T.T.K.G.M.l.n.M.N.B.T.V.M.n.z.g.E.E.>.Y.b.m.Z.m.n.N.V.B.V.M.m.m.n.M.B.E.E.b.z.g.g.n.N.T.T.Y.T.yXyX1X;X;.;.,.| J & r r ",
"e e * S %.<X<X<X1X1X1XqXY.T.n.N.n.s.H ! ~ ) ' g.d./ ~ H ! / ] ] Q ' a.r.a.~ d.) d.) / a.H r./ d.] ) ^ D a u T x.T.x.=.Y.1XwX1X1X;X<X3X&.L & w r ",
"C e * P &.9X8X9X<X1XqXqXT.b.x.N.z.H 6 k n V ! ! ! V h h h F D R L V M x k M H ! ! ! m h h x m ! H G s O     q o.Y.x.=.Y.wXwX1X1X4XwXwXY.P $ r r ",
"e e $ P T.T.8X<X8XrXrXrX5Xb.x.V.n.H k k M V ~ ! H V c h c F F R Y U N x x B H ! ! ! V v x c F ! ^ ! D , X   t o.b.c.&.-X8X9X9X3XwXwXrX;.L $ r r ",
"i C $ P Y.iX0X8X0XrXrXgXT.b.n.N.z.H k b V ~ / s.~ F c c c F / R E T w.q.v B ~ a.s.s.H B v B r.a./ / Y 8 ; o s o.v.c.v.-X8X8X0XeXrXrX0X&.P $ r r ",
"C e $ S T.fXfX6X7XdXfX7XT.' ) d.s.V m M V s.d.d.f.r.F c c H d.E ] ( w.q.q.q.a.d.j.d.r.B v B ! s.g.g.^ n 6 6 s ( ' ' o.E.7X7X7X7X7XfX7Xc.L & r y ",
"e i e U x.R.aXaXaXaXaXQ.x.U i s m V B M w.n.M.D.l.s.e.x F f.l.E.o.g.r.q.q.r.f.m.m.l.a.B c B s.j.m.n.d.F b b m s s t L x.sXsXQ.E.6XaXaXx.L % r r ",
"t t 9 Y x.Q.Q.Q.~.K.R.R.g.q . o 7 m q.M r.l.G.G.M.f.e.c c / h.E.M.g.r.9.5.r.l.G.G.D.f.M k B d.m.G.G.j.H M B m 8 ; . 0 g.~.~.!.Q.R.hXhXx.L * y y ",
"t t & D M.Q.!.!.~.(.(.P.g.u . ; 7 M V M r.l.J.P.F.f.9.z c H W.M.E.g.r.6.5.r.C.L.L.D.f.M x B s.G.G.K.j.H N B M 7 ; . u n.(.(.J.!.hXhX(.n.S * r r ",
"a y & G z.!.!.J./.(.).P.j.p o 4 7 N q.M H j.G.H.D.f.e.h F f.^.E.W.g.r.c 5.t.Z.L.L.J.f.v k B s.m.G.K.j.r.M B N j , X p m.)./././.).).R.M.U * e y ",
"y t # D E.~.!.!./.(.R.P.n.p o > j N q.x e.l.H.G.m.f.9.h c h.^.).^.Z.t.z 5.t.S.].[.U.C.q.x B d.m.K.G.n.r.v w.N j > o n j.).(./.).).[.P.m.U % e r ",
"a y & U x.(.(.(././.).(.n.b ; > j N q.M r.j.K.J.F.f.N z c S._.{.{.U.f.l 3.y.U.@X{.[.S.q.l B d.M.G.n.j.H M q.v j > > n j.P.(.(.).).P.[.m.L % r y ",
"y y w U n.hXhX(./.!.(.).m.b ; 7 j N q.x w.l.G.J.F.f.v l 9.S.{.&X@X`.y.3.4.i.U.@X&XXXU.5.g N d.M.6XG.j.e.x q.v k 6 > n j.P.hX(.(.P.P.).D.U % r r ",
"t t & U x.hXhX/././.).(.l.b > 6 j N q.k e.j.G.G.m.f.N z 6.A..X&X&X_.p.2.4.p.{.*X&XXXA.9.g m s.n.n.n.g.H v w.N k 6 > m j.P.(.).(.P.[.].D.U % r r ",
"y e & U M.hX(.P././.(.).D.n ; 7 k N q.v w.j.G.D.m.s.B z c W..X*X%X_.p.2.4.p.U.#X*XXXU.7.g B d.n.T.n.d.H v q.N k 6 > b D.R.hX).P.P.P.].D.L % r r ",
"y e 1 U x.R.).hX/./.).).m.n ; 7 k q.q.M w.L.P.U.L.C.q.z 8.I.oX%X$X|.i.g 3.p.}.%X*X#XI.8.g q.h.J.).).Z.r.x q.q.k d ; p n.(.(.(./.P.].).D.U % r r ",
"C y e U n.R.).R.!./././.n.b ; 6 j B q.5.y.U.XXXX}.I.9.g 6.I.oX$X$X|.i.d 2.p.}.%X%XoXI.6.g 8.A.{..X{.U.t.5.q.q.k 6 ; n n.(.(.~./.(.).).M.L % r r ",
"Z i 9 U n.hXR.P.!.!.).(.j.p ; 7 j M q.5.u.}.#X*X#XI.8.g 6.I. X$X$X|.p.f 2.p.}.%X#XOXI.0.3.0.I.#X%X#X'.u.3.q.N j 6 ; b l.(.~.~.~./.(.(.n.S % r y ",
"i i 9 U n.hXP.R.!.~.(.hXn.n ; 6 j q.q.2.u.}.#X*XOXI.0.g 6.I.oX$XOX Xp.f 2.p.}.$X#X XI.0.3.0.I.$X%X%X'.u.5.q.N k 6 ; p n.~.~.!.~.~.hX(.M.U * r r ",
"e i 9 U n.sXsX~.aX~.hXhXn.p ; > j N w.4.u.}.#X#X#XI.0.g 6.I. X$X$X Xp.2.2.i.'.%X%XoXI.0.2.0.I.#X*X#X'.u.4.w.q.k 6 o p z.~.~.Q.Q.~.~.hXx.L % r r ",
"i i 9 G x.K.Q.V.K.K.Q.K.z.p o > k q.q.4.u.}.#X*X+XI.0.g 6.I.#X$XOX Xp.d 3.i.'.%X#X#XI.0.2.0.I.#X*X%X'.u.3.q.q.k 6 O p g.Q.Q.E.E.V.K.aXz.L & r r ",
"e i w L o.N.B.B.N.b.N.V.g.i ; 4 j N q.4.u.'.*X*X+XI.8.g 0.I.#X$XOX Xu.3.3.p.'.#X%XoXI.6.2.0.I.#X*X#X'.u.4.9.v k 6 o p ] E.E.E.E.b.B.B.z.L & r r ",
"y y w L ] c.c.c.c.c.b.b.) q o 4 j N w.g y.`.#X*X+XI.8.z 6.I. X$XOX Xu.z 3.p.}.*X%XXXI.6.d 0.U.#X*X#X'.u.4.9.7.k 7 o 0 ) o.c.&.O.x.c.b.o.S = r y ",
"e y e L Q #.#.#.#.#.c.x.Q 9 o 4 j v q.z i.`.@X&X@XA.8.g 6.I. X$XOX|.p.2.3.i.'.#X*X.XA.6.d 8.U.+X*X&X{.p.4.0.q.k 6 ; q Q c.#.#.#.#.c.c.` Z w r r ",
"y y q S Q #.#.#.#.#.c.c.( e o 4 j x v 3.y.`.@X&X@XL.9.g 4.I.oX$XOX|.p.d 2.i.`.#X*XoXA.6.g 8.A.@X&X&X`.p.4.9.q.k 4 ; q Q #.#.O.O.#.#.#.` Z = r y ",
"t t = J { c.&.&.%.c.Y.v.' q o 5 7 M q.3.y.].@X@X{.S.9.g 6.A..X$X$X|.p.d 2.i.}.&X#X+XA.6.g 7.A.{.@X@X].i.4.q.q.k 4 o q ` v.&.%.&.=.Y.v.{ Z = r r ",
"r r & K O.-X-X=X=XY.5XT.#.y X 4 j N q.5.t.L.[.[.[.S.c g 0.I.#X%X$X Xp.3.3.p.}.#X%X+XA.6.g 7.Z.].[.[.U.t.4.q.N j 4 o t o.6X-X=X-X,XT.Y.#.S 9 e r ",
"- - % K %.3XwX9XqXqXgXgXx.i X > j V w.q.t.Z.L.L.L.h.7.z 8.U.+X%X$X|.p.3.4.p. X*X*XoXI.9.z c h.L.P.L.l.r.5.w.N j , X y c.eXeX9X3X8X9XqX=.L & r r ",
"- - % K >.rXrXwXyXqXiXgXY.i X , j q.w.q.w.h.H.L.F.f.c z 9.I.+X%X$X}.p.3.4.p..X*X*X+XI.9.z B f.F.H.D.h.e.v w.B j , X y v.eXrXeX9X9XrXrXY.L $ r r ",
"- - % K >.wXrXwX9XqXrXgXb.y . , j B w.7.r.l.H.J.F.f.v l 8.A.+X*X%X{.p.2.3.p.{.*X*X+XA.9.z c f.F.G.H.l.e.v q.M 8 , X y c.rXrXeXwX9XrXqXY.P $ r t ",
"- - % K &.9X4X<X,X8XrXgXv.t X 4 j B w.v r.l.G.J.F.f.v l 9.S.{.@X@X`.i.2.3.p.`.@X@X{.A.9.z N s.m.G.G.l.e.v N M j 4 X t c.qXqX<X<X<X9XqX=.L & r r ",
"C - * A +.;X;XY.Y.Y.Y.T.c.e o 4 j B N v r.l.J.J.G.s.M l c C.].[.{.W.y.3.4.y.U.{.{.].C.c h N s.F.J.G.l.r.N B m j , X t o.-X-X=X=XY.,XY.=.Z & r r ",
"C - - A [ =.=.=.=.=.v.Y.' e o 4 j M N c e.l.G.J.G.f.B x v f.W.^.^.S.t.5.4.t.S.].^.W.h.c x F f.F.J.G.l.a.x B M j < X w ` v.;.=.=.=.=.-.[ S e r y ",
"C C = A _ *. .|  . .@.#.` q o 4 j M N x e.k.J.J.F.f.B x F f.F.W.M.k.t.5.5.e.Z.L.F.Z.r.M h B s.F.J.J.l.w.M q.M 8 < X = Q &.&.O.O. .+.*._ S w e r ",
"e C * A _ +.=. .+.+.@.c.` q o 4 8 B B M e.k.J.J.M.g.V k B f.k.!.M.l.t.7.v r.Z.F.^.F.g.B c B d.H.J.J.m.r.M B B 8 2 X w Q &.&.+. . .@.*._ C w r r ",
"e - * A _ $.$.$.$.$.&.c.Q q o 4 8 B B x H k.M.J.m.s.m k m s.M.!.M.j.r.x v r.j.G.H.m.s.m k V s.m.J.J.k.H M V m u # X = Q &.&.O.O.| X.=.[ Z w r r ",
"- e * A _  .$.$.$.%.&.c.Q q o , 8 b n j F d.n.j.g.~ b 8 p H g.z.z./ V h j V s.z.j.g.! p 8 b ~ j.m.l.s.m 7 b b 7 2 X q ` &.&.$.O.$.X.=.[ J w r r ",
"C - - A _ $.$.$.$.O.&.c.Q q X < 5 8 8 , u H d.] / G 5 , 2 G ^ / ^ R p 6 6 b ! d.] / G 5 , 8 V / d.d.~ p 4 8 7 5 2 X q Q c.%.%...X.$.X.[ Z w r r ",
"- - % A _ $.&.%.O.%.c.c.) w o 5 5 5 , : 0 D ^ ^ G s 2 o , a R R R D 8 : ; 0 G T ^ Y p , O , s T / ~ U 5 : 1 1 1 3 o q Q c.%.%.%.$.$.$._ Z w r r ",
"C - * J [ $.%.$.%.#.c.c.Q q o 2 5 5 < : 0 D E ^ T s 2 o # a D E R D 0 O O u G ^ ^ E s , ; 2 s ! / ^ G u > 1 1 1 3 X q Q c.%.%.%...%.X.[ J w r t ",
"e C = A _ $.&.%.O.%.c.c.) q o < 5 5 1 < 0 G ( ( T s # O 2 a R E R D 0 , O 0 D ) ^ E s 2 O 2 s ~ ( ( U 9 + 1 1 1 1 X q ` c.&.%.$.%.$.%.[ J w r r ",
"r r * A _ %.$.$.@.O.c.b.' q X 2 5 5 1 + 0 L ^ ^ E a # O # a R E R L 0 , O 0 D E ^ Y s # O 2 s ! ( ( Y 9 + 1 1 1 1 X 9 ` c.c.O.O.%.%.$.[ J = r t ",
"C e = A _ +.&.+.%.#.&.v.) q X 2 5 2 1 + 0 Y E ^ Y s 2 O # a R R R D 0 O , 0 D / ^ Y s # O 3 s T ( ( U u + 1 1 1 1 o q W &.&.%.%.X.%.%.[ J = r r ",
"C e w S _ &.&.@.O.%.&.c.Q q o < 5 3 3 + 0 L ^ ^ R a # O # a R R R R 0 O O 0 U E ^ E a 2 O # s E ( ( ! 9 + 1 1 1 1 X e ` z.Y.o.=.%.%.%.{ J w r r ",
"y e e S _ &.=.@.%.O.c.c.Q q X 2 2 3 3 + 0 G ^ ^ R a # O # a R R R L 0 O @ 0 U ^ ^ E a # O 2 s E ( ~ U 9 + 1 1 1 1 o e ` =.=.=.=.%.%.%.Q Z q r r ",
"y y e S ` &.@.=.$.@.&.c.Q q X 2 5 3 3 @ 0 G ^ ^ Y s # O # a R E E D 0 O O 0 Y E ^ T s # O # s Y ( ( U 9 + 1 1 9 1 + e W Y.' =.o.%.&.&.{ J w r r ",
"i y e Z _ @.&.@.O.%.c.c.' q X 1 3 3 3 + 0 L E ^ E s # @ # a R E R L 0 , @ 0 G E ^ E s # O # s Y ( ( U i + 1 1 7 1 : 1 P Y.Y.=.Y.%.&.#.{ J = r t "
};
